<?xml version="1.0" standalone="no"?>
<!DOCTYPE svg PUBLIC "-//W3C//DTD SVG 1.1//EN" "http://www.w3.org/Graphics/SVG/1.1/DTD/svg11.dtd" >
<svg xmlns="http://www.w3.org/2000/svg" xmlns:xlink="http://www.w3.org/1999/xlink" version="1.1">
<metadata></metadata>
<defs>
<font id="iransanswebfanumregular" horiz-adv-x="1129" >
<font-face units-per-em="2048" ascent="1638" descent="-410" />
<missing-glyph horiz-adv-x="619" />
<glyph horiz-adv-x="0" />
<glyph unicode="&#xd;" horiz-adv-x="536" />
<glyph horiz-adv-x="0" />
<glyph horiz-adv-x="0" />
<glyph unicode=" "  horiz-adv-x="619" />
<glyph unicode="&#x09;" horiz-adv-x="619" />
<glyph unicode="&#xa0;" horiz-adv-x="619" />
<glyph unicode="!" horiz-adv-x="515" d="M116 131l144 146l139 -139l-145 -145zM158 1187v271h205v-271l-23 -777h-149z" />
<glyph unicode="&#x22;" horiz-adv-x="655" d="M136 1042l1 494h140v-136l-30 -358h-111zM406 1042l1 494h140v-136l-30 -358h-111z" />
<glyph unicode="#" horiz-adv-x="1260" d="M119 410v137h265l69 354h-258v139h285l82 416h143l-82 -416h264l82 416h144l-82 -416h204v-139h-231l-69 -354h225v-137h-251l-80 -410h-144l80 410h-264l-80 -410h-143l80 410h-239zM527 547h264l69 354h-264z" />
<glyph unicode="$" horiz-adv-x="1150" d="M110 429h185q0 -139 73 -214t207 -75q131 0 206 63t75 172q0 92 -64.5 155t-217.5 114q-214 65 -311 169.5t-97 265.5q0 164 95.5 269t262.5 125v219h149v-220q167 -23 261 -141t94 -323h-184q0 141 -67 224t-181 83q-118 0 -181.5 -61.5t-63.5 -171.5 q0 -102 66.5 -162.5t219 -110t238 -109t126 -138.5t40.5 -185q0 -168 -101.5 -271.5t-284.5 -122.5v-191h-148v191q-186 17 -291.5 132.5t-105.5 313.5z" />
<glyph unicode="%" horiz-adv-x="1500" d="M105 1106v70q0 131 83.5 216t214.5 85q133 0 215.5 -85.5t82.5 -221.5v-71q0 -132 -83.5 -215.5t-212.5 -83.5q-130 0 -215 83.5t-85 222.5zM243 1099q0 -77 44 -128t118 -51q71 0 114.5 49t43.5 134v73q0 77 -43 128.5t-117 51.5t-117 -51t-43 -133v-73zM342 176 l711 1138l105 -66l-711 -1138zM814 285v72q0 131 83.5 215.5t214.5 84.5t215 -84t84 -223v-71q0 -131 -83.5 -215.5t-213.5 -84.5t-215 83.5t-85 222.5zM952 279q0 -78 44 -129t118 -51q72 0 115 49.5t43 134.5v74q0 79 -43.5 129t-116.5 50q-71 0 -115.5 -49.5 t-44.5 -133.5v-74z" />
<glyph unicode="&#x26;" horiz-adv-x="1273" d="M101 391q0 105 58.5 193t223.5 205q-97 118 -130 190t-33 143q0 166 98 260t266 94q150 0 248 -87.5t98 -220.5q0 -88 -44.5 -162.5t-155.5 -156.5l-107 -79l324 -387q68 130 68 289h167q0 -256 -123 -423l208 -249h-222l-97 115q-74 -66 -173.5 -100.5t-202.5 -34.5 q-213 0 -342 113t-129 298zM286 391q0 -118 76.5 -189t209.5 -71q147 0 269 112l-355 425l-33 -24q-167 -123 -167 -253zM405 1128q0 -96 118 -240l118 83q68 48 93 91.5t25 105.5q0 67 -50 111.5t-126 44.5q-82 0 -130 -55.5t-48 -140.5z" />
<glyph unicode="'" horiz-adv-x="357" d="M103 1057l1 479h149v-111l-21 -368h-129z" />
<glyph unicode="(" horiz-adv-x="788" d="M85 529q0 338 141 629q146 303 408 476q9 -16 20 -34l20 -32l21 -32q11 -19 20 -35q-218 -183 -324 -407q-117 -243 -121 -573q0 -554 445 -970l-92 -139q-249 197 -391 482q-147 298 -147 635z" />
<glyph unicode=")" horiz-adv-x="795" d="M73 -449q445 416 445 970q-4 330 -121 573q-106 223 -324 407q10 16 20 35l21 32q26 43 40 66q259 -175 406 -478q142 -294 143 -627q0 -337 -148 -635q-141 -285 -390 -482l-23 36l-23 35q-28 43 -46 68z" />
<glyph unicode="*" horiz-adv-x="882" d="M28 1073l46 151l302 -112l-9 344h153l-10 -349l297 110l46 -152l-307 -91l198 -271l-124 -94l-186 288l-180 -281l-125 91l201 276z" />
<glyph unicode="+" horiz-adv-x="1161" d="M78 606v175h406v425h186v-425h406v-175h-406v-460h-186v460h-406z" />
<glyph unicode="," horiz-adv-x="401" d="M29 -218q93 131 98 270v167h181v-145q0 -101 -49 -202t-125 -162z" />
<glyph unicode="-" horiz-adv-x="565" d="M37 543v151h488v-151h-488z" />
<glyph unicode="." horiz-adv-x="580" d="M160 110q1 52 30 83q31 33 88 33q58 0 90 -33q30 -31 30 -83q0 -48 -30 -78q-33 -32 -90 -32t-88 32q-29 29 -30 78z" />
<glyph unicode="/" horiz-adv-x="844" d="M18 -125l608 1581h158l-607 -1581h-159z" />
<glyph unicode="0" horiz-adv-x="881" d="M151 483q0 62 24 116.5t64.5 96t95.5 65.5t118 24q62 0 117 -24t96.5 -65.5t65.5 -96t24 -116.5q0 -63 -24 -118t-65.5 -96t-96 -64.5t-117.5 -23.5t-118 23.5t-95.5 64.5t-64.5 96t-24 118zM297 483q0 -32 12 -60.5t33.5 -50t50 -34t60.5 -12.5t61 12.5t50.5 34t34 50 t12.5 60.5t-12.5 61t-34 50t-50.5 33.5t-61 12.5t-60.5 -12.5t-50 -33.5t-33.5 -50t-12 -61z" />
<glyph unicode="1" horiz-adv-x="589" d="M108 1188l148 94q73 -117 121.5 -269.5t73.5 -348.5q11 -84 17.5 -173t11 -177.5t5.5 -174t1 -162.5h-177q0 174 -6 345t-27.5 329t-61 295t-106.5 242z" />
<glyph unicode="2" horiz-adv-x="1012" d="M61 1193l148 95q14 -23 26.5 -47t24.5 -49.5t24.5 -54t27.5 -60.5q20 -47 40 -85t46.5 -66t60.5 -42.5t84 -14.5q74 0 111 45q17 20 28 46.5t17.5 55.5t9 60.5t2.5 60.5q0 38 -4 74t-8 59l175 32q0 -2 2.5 -17.5t5 -41t4.5 -58t1 -68.5q-4 -206 -97 -315v1 q-91 -110 -247 -109q-43 0 -77 5.5t-68 19.5l7 -49q11 -84 17.5 -172.5t10.5 -177t5.5 -174.5t1.5 -164h-177q0 142 -3 282t-14.5 272.5t-34 253t-62.5 222.5q-19 48 -40.5 91.5t-47.5 89.5z" />
<glyph unicode="3" horiz-adv-x="1281" d="M45 1194l161 95q6 -11 14 -26.5t17 -33t18 -36.5t18 -36l42 -90q24 -55 42 -92.5t38 -61t46 -33.5t66 -10q42 0 67 27t39.5 66t19.5 80.5t5 70.5q0 10 -0.5 34.5t-2 51t-3.5 49.5t-2 28l176 21q1 -28 4 -52t5 -47q2 -19 5 -49.5t8.5 -65t14 -70t21 -64t29 -46t38.5 -17.5 q29 0 46 18t24.5 44t9 54t1.5 49q0 40 -3 94.5t-17 132.5l166 33q14 -77 20.5 -142t9.5 -119q4 -72 -9.5 -134t-45 -108.5t-81.5 -72.5t-121 -26q-22 0 -47 4.5t-50.5 17t-50.5 33.5t-48 53q-19 -36 -44 -59.5t-54.5 -38t-62.5 -20.5t-67 -6t-59 4t-53 13q29 -182 35 -364 t6 -364h-177q2 37 2.5 76.5t0.5 74.5q0 259 -35 491t-107 417q-20 49 -37.5 84.5t-37.5 67.5z" />
<glyph unicode="4" horiz-adv-x="1120" d="M71 1202l148 94q31 -51 58.5 -107t48.5 -113q20 53 54 97.5t78.5 77t96.5 51.5t108 21q61 3 127 -16t130 -62q40 -26 66 -49t43 -40l-127 -123l-10 9q-9 9 -24.5 22t-37 28.5t-47.5 28t-54 20t-62.5 4.5t-69.5 -19t-60.5 -41.5t-39 -60t-8.5 -74.5q9 -41 29.5 -68 t49.5 -42.5t65 -21.5t76 -4q33 1 67.5 5t67.5 12t63.5 20.5t55.5 30.5l79 -144q-77 -56 -160.5 -78t-172.5 -22q-84 0 -163.5 23.5t-139.5 78.5q11 -44 18.5 -101.5t12.5 -123t7.5 -136t4 -139t1.5 -132.5v-117h-178q0 174 -6 345.5t-27.5 329t-61 294.5t-106.5 242z" />
<glyph unicode="5" horiz-adv-x="1227" d="M102 308.5q-4 63.5 2 126t17 112.5q16 72 41.5 146t62.5 154.5t87 170.5t115 193l-33 33l125 125q90 -82 177 -167t162 -181q175 -223 253 -470q26 -85 26 -178q0 -74 -19.5 -145t-58.5 -127.5t-98 -92t-137 -36.5h-1q-65 0 -119 32t-91 91l-3 4q-38 -58 -95.5 -92 t-127.5 -34q-77 0 -130 28.5t-86 75.5t-49 107.5t-20 124zM276 378.5q-2 -40.5 1.5 -81t15.5 -73.5t35 -53.5t59 -20.5q32 1 55.5 20t40 48t27.5 65t18 71.5t12 68t9 53.5l143 -1q0 -24 1.5 -57t6.5 -68.5t14.5 -70t24 -62.5t35.5 -47t50 -22q42 3 68.5 26t41.5 56.5t21 72 t6 71.5q0 30 -4.5 62t-14.5 63q-32 99 -77.5 185t-97 160.5t-106 136t-104.5 109.5q-56 -91 -98.5 -169.5t-74.5 -148.5t-54 -134.5t-36 -127.5q-5 -22 -10.5 -56.5t-7.5 -75z" />
<glyph unicode="6" horiz-adv-x="1047" d="M90 40q4 14 16.5 48t35 83t55.5 111t78 132q45 69 97 133.5t105 114.5q-67 9 -122.5 33t-96.5 61t-63.5 89.5t-22.5 117.5q0 56 17 105t46.5 90.5t70 74.5t87 56t96.5 35t100 12q131 0 258 -75l-90 -153q-45 28 -87.5 39.5t-80.5 11.5q-44 0 -87 -14.5t-77 -40.5 t-55.5 -62t-21.5 -79q0 -34 16.5 -58t42.5 -39.5t56.5 -22.5t59.5 -7q41 -1 84 4.5t84 13.5t76.5 18t61.5 18q25 8 41.5 13t26.5 8l51 -168l-64 -22q-83 -28 -153.5 -73.5t-130 -102t-107.5 -120t-85.5 -124.5t-65.5 -118t-46 -100t-27.5 -69t-10.5 -27z" />
<glyph unicode="7" horiz-adv-x="1149" d="M79 1222l147 91q55 -85 101.5 -164.5t85.5 -155.5t71 -149t59 -146q9 -26 16.5 -46.5t14 -40t12.5 -40.5t12 -47q37 117 81.5 234t90 222t89.5 191t80 142l146 -91q-41 -80 -86 -168.5t-89 -183.5t-84 -198.5t-71 -215t-50.5 -230.5t-22.5 -246h-176q0 198 -38 371 t-99 327t-137 288.5t-153 255.5z" />
<glyph unicode="8" horiz-adv-x="1202" d="M126 62q41 79 86.5 166t89 182t84 197t71.5 212.5t50.5 228t22.5 243.5h176q0 -195 38 -367t99 -324t137 -285.5t153 -252.5l-147 -90q-110 167 -187 316t-130 293q-9 25 -16.5 45t-14 40t-12.5 40.5t-12 45.5q-37 -116 -81 -231.5t-90 -219t-90 -189t-80 -140.5z" />
<glyph unicode="9" horiz-adv-x="977" d="M102 1027q6 47 20.5 93.5t37.5 89.5t54 79.5t70 62.5q77 50 167 39q92 -12 154 -78q85 -88 112 -284q10 -74 10 -170q-1 -91 2 -160t9 -126t14.5 -108t20.5 -105q46 -217 86 -266l-107 -139q-69 74 -126 293q-30 115 -45 224t-16 215q-62 -11 -123 -9.5t-115.5 16.5 t-100 43t-76.5 69.5t-44 96t-4 124.5zM248 1001q-13 -129 164 -147q71 -7 153 11q-2 54 -7.5 100.5t-14.5 86.5q-6 26 -17 55t-28 53.5t-40 40.5t-51 16q-38 0 -66.5 -23t-48.5 -57t-30.5 -71t-13.5 -65z" />
<glyph unicode=":" horiz-adv-x="534" d="M150 112q0 52 29 83q31 33 88 33t90 -33q30 -31 30 -83q0 -48 -30 -78q-33 -32 -90 -32t-88 32q-29 29 -29 78zM150 717q1 52 30 83q31 33 88 33q58 0 90 -33q30 -31 30 -83q0 -49 -30 -79q-33 -32 -90 -32q-56 0 -88 32q-29 29 -30 79z" />
<glyph unicode=";" horiz-adv-x="432" d="M41 -218q94 131 98 270v167h181v-145q0 -101 -49.5 -202t-124.5 -162zM111 980q0 47 28.5 79.5t85.5 32.5t86.5 -32t29.5 -80q0 -46 -29.5 -77t-86.5 -31t-85.5 31t-28.5 77z" />
<glyph unicode="&#x3c;" horiz-adv-x="1040" d="M72 574v146l818 378v-196l-626 -258l626 -253v-196z" />
<glyph unicode="=" horiz-adv-x="1123" d="M152 399v160h834v-160h-834zM152 814v161h834v-161h-834z" />
<glyph unicode="&#x3e;" horiz-adv-x="1070" d="M134 196v192l661 262l-661 259v190l854 -378v-146z" />
<glyph unicode="?" horiz-adv-x="967" d="M75 1115q2 162 115.5 261.5t295.5 99.5q189 0 294.5 -101.5t105.5 -278.5q0 -175 -162 -345l-109 -108q-73 -81 -73 -233h-185q2 119 27 188t102 153l131 135q84 95 84 204q0 105 -55 164.5t-160 59.5q-102 0 -164 -54t-62 -145h-185zM349 93q0 45 27.5 75.5t81.5 30.5 t82 -30.5t28 -75.5t-28 -74.5t-82 -29.5t-81.5 29.5t-27.5 74.5z" />
<glyph unicode="@" horiz-adv-x="1838" d="M118 478q12 275 123 494.5t301 339t429 119.5q249 0 427 -112t265 -323t75 -494q-12 -242 -120 -382t-289 -140q-187 0 -240 168q-54 -85 -123.5 -126.5t-143.5 -41.5q-142 0 -215 116t-54 321q15 166 75.5 295t156 203t200.5 74q81 0 145 -21.5t144 -84.5l-52 -554 q-19 -231 128 -231q113 0 183 112t76 292q19 389 -144.5 593t-497.5 204q-201 0 -357 -99.5t-246 -287.5t-101 -434q-12 -248 60 -430.5t219.5 -279t356.5 -96.5q90 0 180.5 22t150.5 57l37 -115q-62 -39 -164.5 -64t-207.5 -25q-250 0 -430 112.5t-269.5 324t-77.5 494.5z M712 417q-14 -142 26.5 -218t128.5 -76q60 0 115.5 51t91.5 146l1 9l46 503q-56 29 -120 29q-117 0 -193.5 -118.5t-95.5 -325.5z" />
<glyph unicode="A" horiz-adv-x="1335" d="M28 0l556 1456h168l557 -1456h-197l-139 380h-610l-137 -380h-198zM421 538h495l-248 681z" />
<glyph unicode="B" horiz-adv-x="1275" d="M169 0v1456h476q238 0 357 -98t119 -290q0 -102 -58 -180.5t-158 -121.5q118 -33 186.5 -125.5t68.5 -220.5q0 -196 -127 -308t-359 -112h-505zM361 157h317q134 0 211.5 69.5t77.5 191.5q0 263 -284 263h-2h-320v-524zM361 835h290q126 0 201.5 63t75.5 171 q0 119 -70 174t-213 55h-284v-463z" />
<glyph unicode="C" horiz-adv-x="1332" d="M119 660v140q0 203 72.5 357t205.5 236.5t308 82.5q232 0 372 -129.5t163 -358.5h-193q-25 174 -108.5 252t-233.5 78q-184 0 -288.5 -136t-104.5 -387v-141q0 -237 99 -377t277 -140q159 0 245 72.5t114 252.5h193q-28 -232 -171 -357t-381 -125q-258 0 -413.5 185 t-155.5 495z" />
<glyph unicode="D" horiz-adv-x="1342" d="M169 0v1456h411q191 0 336.5 -84t225 -239t80.5 -356v-93q0 -206 -79.5 -361t-227 -238t-343.5 -85h-403zM361 157h202q223 0 346 138t123 393v85q0 248 -116.5 385.5t-330.5 139.5h-224v-1141z" />
<glyph unicode="E" horiz-adv-x="1163" d="M169 0v1456h915v-158h-723v-468h631v-157h-631v-516h733v-157h-925z" />
<glyph unicode="F" horiz-adv-x="1131" d="M169 0v1456h902v-158h-710v-498h611v-157h-611v-643h-192z" />
<glyph unicode="G" horiz-adv-x="1395" d="M122 658v127q0 329 153.5 510t431.5 181q228 0 367 -116.5t170 -330.5h-192q-53 289 -344 289q-193 0 -292.5 -135.5t-100.5 -392.5v-119q0 -246 112 -390t303 -144q108 0 189 24t134 81v327h-337v156h528v-534q-74 -107 -206.5 -159t-308.5 -52q-178 0 -316 83.5 t-213.5 237.5t-77.5 357z" />
<glyph unicode="H" horiz-adv-x="1460" d="M169 0v1456h192v-626h734v626h193v-1456h-193v673h-734v-673h-192z" />
<glyph unicode="I" horiz-adv-x="557" d="M183 0v1456h192v-1456h-192z" />
<glyph unicode="J" d="M53 402h192q0 -125 68.5 -195t198.5 -70q119 0 192.5 75t74.5 210v1034h193v-1031q0 -208 -125.5 -326.5t-334.5 -118.5q-217 0 -338 111t-121 311z" />
<glyph unicode="K" horiz-adv-x="1284" d="M169 0v1456h192v-720l647 720h232l-573 -643l618 -813h-230l-516 677l-178 -185v-492h-192z" />
<glyph unicode="L" horiz-adv-x="1102" d="M169 0v1456h193v-1299h690v-157h-883z" />
<glyph unicode="M" horiz-adv-x="1787" d="M169 0v1456h248l476 -1188l476 1188h249v-1456h-192v567l18 612l-478 -1179h-147l-477 1176l19 -609v-567h-192z" />
<glyph unicode="N" horiz-adv-x="1460" d="M169 0v1456h193l735 -1127v1127h191v-1456h-193l-733 1122v-1122h-193z" />
<glyph unicode="O" horiz-adv-x="1407" d="M118 668v105q0 210 73 371t206.5 246.5t305.5 85.5q175 0 308.5 -84.5t205.5 -245t72 -373.5v-92q0 -215 -72 -374t-204 -243t-308 -84q-172 0 -305 84.5t-206.5 241t-75.5 362.5zM309 681q0 -251 105.5 -394.5t290.5 -143.5q186 0 288 135.5t105 388.5v108 q0 259 -104 397.5t-291 138.5q-183 0 -287 -138.5t-107 -384.5v-107z" />
<glyph unicode="P" horiz-adv-x="1292" d="M169 0v1456h537q239 0 374.5 -122t135.5 -323q0 -212 -132.5 -326.5t-379.5 -114.5h-343v-570h-192zM361 727h345q154 0 236 72.5t82 209.5q0 130 -82 208t-225 81h-356v-571z" />
<glyph unicode="Q" horiz-adv-x="1407" d="M109 668v105q0 210 73 371t206.5 246.5t305.5 85.5q176 0 309.5 -85t205.5 -244.5t72 -372.5v-93q0 -211 -67 -363.5t-188 -238.5l260 -204l-131 -121l-307 244q-72 -18 -152 -18q-173 0 -305.5 84.5t-206 241t-75.5 362.5zM301 681q0 -250 104.5 -394t290.5 -144 t288 135.5t105 388.5v108q0 257 -102.5 396.5t-292.5 139.5q-181 0 -285.5 -138.5t-107.5 -384.5v-107z" />
<glyph unicode="R" horiz-adv-x="1260" d="M168 0v1456h482q246 0 378.5 -112t132.5 -326q0 -135 -73.5 -236.5t-204.5 -151.5l342 -618v-12h-206l-316 589h-342v-589h-193zM361 746h295q142 0 227 74t85 198q0 135 -80.5 207t-232.5 73h-294v-552z" />
<glyph unicode="S" horiz-adv-x="1215" d="M80 422h193q0 -132 97.5 -208.5t260.5 -76.5q151 0 232.5 62t81.5 169t-75 165.5t-272 115.5q-248 71 -360 174.5t-112 255.5q0 172 137.5 284.5t357.5 112.5q150 0 267.5 -58t182 -160t64.5 -223h-193q0 133 -84 208t-237 75q-142 0 -221.5 -62.5t-79.5 -173.5 q0 -89 75.5 -150.5t257 -112.5t284 -112.5t152 -143.5t49.5 -193q0 -177 -138 -283.5t-369 -106.5q-150 0 -280 57.5t-200.5 157.5t-70.5 227z" />
<glyph unicode="T" horiz-adv-x="1221" d="M49 1298v158h1126v-158h-468v-1298h-191v1298h-467z" />
<glyph unicode="U" horiz-adv-x="1327" d="M140 464v992h190v-986q0 -158 87 -245.5t248 -87.5q163 0 249.5 87t86.5 245v987h193v-990q-1 -206 -129.5 -337t-348.5 -147l-51 -2q-240 0 -381.5 129t-143.5 355z" />
<glyph unicode="V" horiz-adv-x="1302" d="M28 1456h209l414 -1201l416 1201h210l-540 -1456h-170z" />
<glyph unicode="W" horiz-adv-x="1817" d="M61 1456h192l230 -997l28 -192l41 173l288 1016h162l281 -1016l40 -176l31 196l226 996h193l-353 -1456h-175l-300 1061l-23 111l-23 -111l-311 -1061h-175z" />
<glyph unicode="X" horiz-adv-x="1284" d="M57 0l472 734l-461 722h225l351 -558l349 558h226l-460 -722l471 -734h-228l-358 568l-360 -568h-227z" />
<glyph unicode="Y" horiz-adv-x="1229" d="M15 1456h220l378 -731l380 731h218l-502 -913v-543h-192v543z" />
<glyph unicode="Z" horiz-adv-x="1226" d="M86 0v144l798 1154h-785v158h1015v-141l-801 -1158h833v-157h-1060z" />
<glyph unicode="[" horiz-adv-x="543" d="M146 -312v1976h377v-152h-191v-1672h191v-152h-377z" />
<glyph unicode="\" horiz-adv-x="839" d="M40 1456h176l608 -1581h-176z" />
<glyph unicode="]" horiz-adv-x="543" d="M9 -160h193v1672h-193v152h378v-1976h-378v152z" />
<glyph unicode="^" horiz-adv-x="855" d="M64 729l299 727h127l298 -727h-171l-191 482l-190 -482h-172z" />
<glyph unicode="_" horiz-adv-x="924" d="M4 0h916v-151h-916v151z" />
<glyph unicode="`" horiz-adv-x="633" d="M57 1534h223l194 -294h-159z" />
<glyph unicode="a" horiz-adv-x="1113" d="M109 300q0 169 128.5 262.5t361.5 93.5h180v85q0 97 -58 154.5t-171 57.5q-100 0 -166.5 -50t-66.5 -121h-186q0 81 57.5 156.5t156 119.5t216.5 44q187 0 293 -93.5t110 -257.5v-498q0 -149 38 -237v-16h-194q-16 32 -26 114q-129 -134 -308 -134q-159 0 -262 90.5 t-103 229.5zM294 326q0 -87 57.5 -136t149.5 -49q86 0 164.5 45t113.5 117v222h-145q-340 0 -340 -199z" />
<glyph unicode="b" horiz-adv-x="1148" d="M140 0v1536h185v-573q112 140 308 140l1 -1q197 0 309.5 -149t112.5 -408v-16q0 -248 -114 -398.5t-306 -150.5q-205 0 -317 145l-9 -125h-170zM325 307q85 -170 265 -170q133 0 207 103t74 310q0 189 -73 292t-210 103q-183 0 -263 -170v-468z" />
<glyph unicode="c" horiz-adv-x="1072" d="M92 531v31q0 158 58 281t166.5 191t256.5 68q182 0 302.5 -109t128.5 -283h-175q-8 105 -79.5 172.5t-176.5 67.5q-142 0 -219 -101.5t-77 -293.5v-35q0 -187 77 -288t220 -101q99 0 173 60t82 150h175q-5 -93 -64 -177t-157.5 -134t-208.5 -50q-222 0 -352 147.5 t-130 403.5z" />
<glyph unicode="d" horiz-adv-x="1154" d="M95 536v14q0 248 118 400t309 152t301 -130v564h185v-1536h-170l-9 116q-111 -135 -309 -136q-188 0 -306.5 154t-118.5 402zM280 529q0 -184 76 -288t210 -104q175 0 257 158v497q-83 153 -255 153q-136 0 -212 -105t-76 -311z" />
<glyph unicode="e" horiz-adv-x="1085" d="M93 511v34q0 161 61.5 287.5t172 198t239.5 71.5q211 0 328 -139t117 -398v-77h-733q4 -160 93.5 -258.5t227.5 -98.5q98 0 166 40t119 106l113 -88q-136 -209 -408 -209q-220 0 -358 144.5t-138 386.5zM284 640h542v14q-8 142 -76 219t-184 77q-112 0 -188 -81.5 t-94 -228.5z" />
<glyph unicode="f" horiz-adv-x="710" d="M60 939v143h171v111q0 174 93 269t263 95q64 0 127 -17l-10 -150q-47 9 -100 9q-90 0 -139 -52.5t-49 -150.5v-114h231v-143h-231v-939h-185v939h-171z" />
<glyph unicode="g" horiz-adv-x="1148" d="M96 550q0 253 117 402.5t310 149.5q199 0 309 -140l9 120h169v-1056q0 -210 -124.5 -331t-334.5 -121q-118 0 -229.5 50t-170.5 137l96 111q119 -147 291 -147q135 0 210.5 76t75.5 214v93q-110 -127 -303 -128q-190 0 -307.5 153t-117.5 417zM282 529q0 -183 75 -287.5 t210 -104.5q175 0 257 159v494q-85 155 -255 155q-135 0 -211 -105t-76 -311z" />
<glyph unicode="h" horiz-adv-x="1128" d="M140 0v1536h185v-585q123 151 320 151q344 0 346 -387v-715h-185v716q-1 117 -53.5 173t-163.5 56q-90 0 -158 -48t-106 -126v-771h-185z" />
<glyph unicode="i" horiz-adv-x="496" d="M141 1369q0 45 27.5 76t81.5 31t82 -31t28 -76t-28 -75t-82 -30t-81.5 30t-27.5 75zM156 0v1082h185v-1082h-185z" />
<glyph unicode="j" horiz-adv-x="488" d="M-65 -271q32 -8 84 -8q62 0 94.5 33.5t32.5 116.5v1211h185v-1207q0 -312 -281 -312h-2q-61 0 -113 18v148zM127 1369q0 45 27.5 76t80.5 31q54 0 82 -31t28 -76t-28 -75t-82 -30t-81 30t-27 75z" />
<glyph unicode="k" horiz-adv-x="1038" d="M141 0v1536h185v-929l99 119l337 356h225l-421 -452l470 -630h-217l-377 501l-116 -121v-380h-185z" />
<glyph unicode="l" horiz-adv-x="496" d="M156 0v1536h185v-1536h-185z" />
<glyph unicode="m" horiz-adv-x="1795" d="M139 0v1082h175l5 -120q118 140 318 140h3q227 0 309 -174q53 78 140 126t205 48q356 0 362 -377v-725h-185v714q0 116 -53 173.5t-178 57.5q-103 0 -171 -61.5t-79 -165.5v-718h-186v709q0 236 -231 236q-183 0 -249 -155v-790h-185z" />
<glyph unicode="n" d="M140 0v1082h175l6 -136q124 156 321 156h3q344 0 346 -387v-715h-185v716q-1 117 -53.5 173t-163.5 56q-90 0 -158 -48t-106 -126v-771h-185z" />
<glyph unicode="o" horiz-adv-x="1168" d="M91 538v13q0 158 62.5 285.5t174 196.5t254.5 69q221 0 357.5 -153t136.5 -407v-13q0 -158 -60.5 -283.5t-173 -195.5t-258.5 -70q-220 0 -356.5 153t-136.5 405zM277 529q0 -180 83.5 -289t223.5 -109q141 0 224 110.5t83 309.5q0 178 -84.5 288.5t-224.5 110.5 q-137 0 -221 -109t-84 -312z" />
<glyph unicode="p" horiz-adv-x="1148" d="M140 -416v1498h169l9 -120q112 140 311 140h3q195 0 308.5 -147t113.5 -409v-17q0 -247 -113 -398t-306 -151q-197 0 -310 125v-521h-185zM325 279q83 -148 254 -148q134 0 212 105.5t78 313.5q0 183 -78 289t-214 106q-168 0 -252 -149v-517z" />
<glyph unicode="q" horiz-adv-x="1163" d="M95 537v13q0 255 117 403.5t314 148.5q191 0 303 -129l8 109h170v-1498h-185v516q-112 -119 -298 -120q-196 0 -312.5 152.5t-116.5 404.5zM280 529q0 -186 78.5 -292t211.5 -106q165 0 252 146v530q-88 143 -250 143q-134 0 -213 -106.5t-79 -314.5z" />
<glyph unicode="r" horiz-adv-x="692" d="M140 0v1082h180l3 -125q91 145 258 145q54 0 82 -14v-172q-43 7 -91 7q-182 0 -247 -155v-768h-185z" />
<glyph unicode="s" horiz-adv-x="1056" d="M95 333h185q5 -93 74.5 -147.5t183.5 -54.5q105 0 168.5 43t63.5 113q0 76 -56.5 117t-197 71t-223 72t-122 100t-39.5 138q0 133 112.5 225t287.5 92q184 0 298.5 -95t114.5 -243h-186q0 76 -64.5 131t-162.5 55q-101 0 -158 -44t-57 -115q0 -67 53 -101t191.5 -65 t224.5 -74t127.5 -103.5t41.5 -147.5q0 -145 -116 -232.5t-301 -87.5q-130 0 -230 46t-156.5 128.5t-56.5 178.5z" />
<glyph unicode="t" horiz-adv-x="668" d="M9 939v143h197v262h185v-262h202v-143h-202v-671q0 -65 27 -97.5t92 -32.5q32 0 88 12v-150q-73 -20 -142 -20q-124 0 -187 75t-63 213v671h-197z" />
<glyph unicode="u" d="M136 378v704h185v-699q0 -246 200 -246q212 0 282 158v787h185v-1082h-176l-4 107q-108 -126 -317 -127q-173 0 -263.5 100.5t-91.5 297.5z" />
<glyph unicode="v" horiz-adv-x="991" d="M33 1082h189l275 -831l268 831h189l-388 -1082h-141z" />
<glyph unicode="w" horiz-adv-x="1538" d="M43 1082h184l213 -810l252 810h149l257 -827l208 827h185l-315 -1082h-150l-263 820l-256 -820h-150z" />
<glyph unicode="x" horiz-adv-x="1015" d="M41 0l365 547l-354 535h214l237 -395l240 395h216l-354 -535l365 -547h-214l-250 405l-250 -405h-215z" />
<glyph unicode="y" horiz-adv-x="968" d="M22 1082h202l270 -811l252 811h198l-435 -1249q-102 -270 -321 -270l-35 3l-69 13v150l50 -4q94 0 146.5 38t86.5 139l41 110z" />
<glyph unicode="z" horiz-adv-x="1015" d="M88 0v136l597 793h-588v153h820v-131l-603 -800h633v-151h-859z" />
<glyph unicode="{" horiz-adv-x="692" d="M64 543v145q212 0 212 242v208q2 183 89.5 295.5t266.5 163.5l38 -115q-208 -67 -209 -349v-202q0 -227 -167 -316q167 -90 167 -319v-206q3 -275 209 -341l-38 -115q-177 50 -266.5 164.5t-89.5 302.5v199q0 243 -212 243z" />
<glyph unicode="|" horiz-adv-x="498" d="M175 -270v1726h149v-1726h-149z" />
<glyph unicode="}" horiz-adv-x="692" d="M19 -251q203 65 210 331v220q0 231 181 315q-181 82 -181 315v203q0 282 -209 349l38 115q177 -51 266 -163t90 -297v-210q0 -239 212 -239v-145q-212 0 -212 -243v-202q0 -188 -90.5 -301t-265.5 -163z" />
<glyph unicode="~" horiz-adv-x="1392" d="M131 436q0 159 92 262.5t231 103.5q76 0 146 -32t158 -112.5t152 -90.5l29 -2q76 0 123.5 58t47.5 153l153 1q0 -158 -93.5 -266.5t-230.5 -108.5q-72 0 -136 26.5t-148.5 100.5t-121.5 92t-79 18q-78 0 -120 -53.5t-42 -147.5z" />
<glyph unicode="&#xa1;" horiz-adv-x="498" d="M139 996q0 45 28 75t82 30t81.5 -30t27.5 -75t-27.5 -76t-81.5 -31t-82 31t-28 76zM157 -360l13 1044h168l13 -1044h-194z" />
<glyph unicode="&#xa2;" horiz-adv-x="1120" d="M105 527v35q0 212 101 354.5t278 175.5v226h185v-223q150 -23 246 -129t102 -256h-175q-8 105 -79.5 172.5t-176.5 67.5q-141 0 -218.5 -101.5t-77.5 -293.5v-35q0 -187 77.5 -288t218.5 -101q100 0 174 60.5t82 149.5h175q-6 -126 -105 -226.5t-243 -126.5v-233h-185 v234q-179 34 -279 176t-100 362z" />
<glyph unicode="&#xa3;" horiz-adv-x="1189" d="M91 622v157h160l-9 260q0 199 122.5 318t322.5 119q190 0 301 -106t111 -283h-191q0 107 -63.5 169t-174.5 62q-104 0 -169.5 -77t-65.5 -202l9 -260h319v-157h-314l8 -220q0 -153 -62 -245h733l-1 -157h-1032v157h77q40 9 65 74.5t27 161.5v8l-8 221h-165z" />
<glyph unicode="&#xa4;" horiz-adv-x="1460" d="M105 109l139 141q-104 156 -104 358q0 206 112 369l-147 151l130 136l147 -150q158 120 353 120q197 0 355 -121l149 152l132 -137l-151 -154q110 -163 110 -366q0 -196 -102 -355l143 -144l-132 -136l-136 139q-159 -132 -368 -132q-207 0 -366 130l-134 -136zM311 608 q0 -123 57.5 -229t155.5 -167t211 -61t211 61.5t154.5 167t56.5 228.5q0 122 -56.5 227.5t-155 166t-210.5 60.5t-210.5 -60t-156 -166t-57.5 -228z" />
<glyph unicode="&#xa5;" horiz-adv-x="1240" d="M31 1456h220l363 -674l364 674h219l-418 -720h312v-125h-384v-165h384v-124h-384v-322h-193v322h-378v124h378v165h-378v125h313z" />
<glyph unicode="&#xa6;" horiz-adv-x="490" d="M147 -270v791h186v-791h-186zM147 698v758h186v-758h-186z" />
<glyph unicode="&#xa7;" horiz-adv-x="1256" d="M90 -64l186 2q0 -130 90 -205.5t246 -75.5q136 0 219 58.5t83 154.5q0 89 -71 141.5t-280 114.5q-182 47 -278 103t-142.5 133.5t-46.5 188.5q0 186 182 274q-66 49 -101.5 117t-35.5 168q0 166 133.5 266t355.5 100q232 0 362 -113t130 -318h-185q0 125 -84 202.5 t-223 77.5q-142 0 -222.5 -57.5t-80.5 -155.5q0 -69 28 -109t95.5 -72.5t211 -72.5t228 -76t141 -84.5t85.5 -113t29 -153.5q0 -189 -186 -274q69 -49 105 -117t36 -168q0 -167 -130 -267t-358 -100q-111 0 -212 28t-171 85q-139 113 -139 318zM282 553q0 -70 27 -110 t93.5 -73t208.5 -74t186 -58q78 20 120 70.5t42 119.5q0 87 -69.5 142t-287.5 121q-90 24 -165 51q-80 -19 -117.5 -69.5t-37.5 -119.5z" />
<glyph unicode="&#xa8;" horiz-adv-x="855" d="M102 1371q0 45 27.5 75.5t81.5 30.5t82 -30.5t28 -75.5t-28 -75t-82 -30t-81.5 30t-27.5 75zM532 1369q0 45 27.5 76t81.5 31t82 -31t28 -76t-28 -75t-82 -30t-81.5 30t-27.5 75z" />
<glyph unicode="&#xa9;" horiz-adv-x="1609" d="M91 729q0 202 93.5 375t259 272.5t357.5 99.5t357 -99.5t258.5 -272.5t93.5 -375q0 -198 -90 -369.5t-255.5 -276t-363.5 -104.5t-363 103.5t-256 275.5t-91 371zM206 729q0 -172 80 -318.5t217.5 -229.5t297.5 -83t297 83t217 229.5t80 318.5q0 170 -79 315 t-216.5 228.5t-298.5 83.5q-160 0 -298 -82.5t-217.5 -228.5t-79.5 -316zM442 676v110q0 175 95.5 281t250.5 106q160 0 246 -82t86 -231h-146q0 99 -47.5 141.5t-138.5 42.5q-94 0 -148 -69t-54 -192v-113q0 -119 54 -188.5t148 -69.5q92 0 138.5 42t46.5 143h146 q0 -152 -86.5 -233t-244.5 -81q-157 0 -251.5 105.5t-94.5 287.5z" />
<glyph unicode="&#xaa;" horiz-adv-x="915" d="M147 918q0 111 83.5 171t255.5 60h108v52q0 134 -124 135q-69 0 -108.5 -27t-39.5 -78l-161 12q0 103 86 168t223 65q133 0 210 -71.5t77 -205.5v-316q0 -97 26 -178h-165q-12 34 -18 72q-77 -86 -204 -86q-119 0 -184 62t-65 165zM310 922q-1 -94 125 -94q43 0 87 20 t72 47v142h-112q-83 -2 -127.5 -33t-44.5 -82z" />
<glyph unicode="&#xab;" horiz-adv-x="994" d="M228 521q0 107 27 197.5t59.5 156.5t60 105t31.5 41l133 -108l-23 -31q-21 -30 -47 -82.5t-47 -124.5t-21 -154q0 -85 21 -155t47 -122.5t47 -83.5l23 -30l-133 -109q-4 3 -31.5 42t-60 105t-59.5 155.5t-27 197.5zM522 521q0 86 21.5 161t48.5 129.5t49.5 85.5t25.5 34 l133 -109l-17 -23q-16 -23 -36.5 -64.5t-37 -96t-16.5 -117.5q0 -64 16.5 -118.5t36 -95t35.5 -63.5l17 -23l-131 -110q-3 2 -25.5 34t-49.5 86.5t-48.5 128.5t-21.5 161z" />
<glyph unicode="&#xac;" horiz-adv-x="1134" d="M127 639v161h831v-425h-186v264h-645z" />
<glyph unicode="&#xad;" horiz-adv-x="565" d="M37 543v151h488v-151h-488z" />
<glyph unicode="&#xae;" horiz-adv-x="1609" d="M90 729q0 202 93.5 375t259 272.5t357.5 99.5t357 -99.5t258.5 -272.5t93.5 -375q0 -198 -90 -369.5t-255.5 -276t-363.5 -104.5q-197 0 -362.5 103.5t-256.5 275.5t-91 371zM205 729q0 -172 80 -318.5t217.5 -229.5t297.5 -83q161 0 299 84.5t216.5 229.5t78.5 317 q0 171 -78.5 315.5t-216.5 228t-299 83.5q-159 0 -297.5 -82.5t-218 -228.5t-79.5 -316zM512 316v849h276q153 0 237.5 -65.5t84.5 -190.5q0 -123 -128 -188q122 -50 123 -204v-61q0 -85 17 -124v-16h-145q-14 36 -14 128.5t-3 109.5q-16 96 -131 100h-176v-338h-141z M653 782h156q71 2 115.5 35t44.5 87q0 73 -39 103.5t-139 30.5h-138v-256z" />
<glyph unicode="&#xaf;" horiz-adv-x="937" d="M120 1313v143h714v-143h-714z" />
<glyph unicode="&#xb0;" horiz-adv-x="764" d="M130 1216q0 103 74.5 181.5t180.5 78.5q104 0 177.5 -77.5t73.5 -182.5q0 -106 -73.5 -181t-177.5 -75q-105 0 -180 75t-75 181zM255 1216q0 -54 38 -91t92 -37t91 35.5t37 92.5q0 58 -37 95.5t-91 37.5t-92 -39.5t-38 -93.5z" />
<glyph unicode="&#xb1;" horiz-adv-x="1094" d="M97 703v151h385v413h167v-413h364v-151h-364v-414h-167v414h-385zM135 0v152h835v-152h-835z" />
<glyph unicode="&#xb2;" horiz-adv-x="750" d="M66 1205q0 114 83.5 188t215.5 74t209 -63.5t77 -173.5q0 -103 -107 -211l-84 -79l-176 -145h399v-128h-599v108l300 282q110 102 109 171q0 49 -32 79.5t-92 30.5q-75 0 -110.5 -38t-35.5 -95h-157z" />
<glyph unicode="&#xb3;" horiz-adv-x="750" d="M62 888h158q0 -45 39.5 -75t106.5 -30q70 0 106.5 30t36.5 81q0 113 -156 115h-88v116h84q74 0 110 30.5t36 78.5q0 45 -31.5 74t-101.5 29q-57 0 -94.5 -25.5t-37.5 -66.5h-157q0 98 81.5 159.5t205.5 61.5q137 0 215 -60.5t78 -164.5q0 -55 -35 -100.5t-101 -70.5 q149 -41 149 -184q0 -106 -85 -168.5t-221 -62.5q-132 0 -215 63t-83 170z" />
<glyph unicode="&#xb4;" horiz-adv-x="642" d="M123 1240l193 294h224l-268 -294h-149z" />
<glyph unicode="&#xb5;" horiz-adv-x="1160" d="M154 -416v1498h185v-633q1 -163 52.5 -241t167.5 -78q199 0 261 152v800h186v-1082h-167l-9 115q-93 -134 -263 -135q-147 0 -228 73v-469h-185z" />
<glyph unicode="&#xb6;" horiz-adv-x="1000" d="M67 988q0 213 133 340.5t363 127.5h269v-1456h-186v520h-84q-230 0 -362.5 127t-132.5 341z" />
<glyph unicode="&#xb7;" horiz-adv-x="534" d="M147 729q0 48 28.5 80t85.5 32t86.5 -32t29.5 -80q0 -47 -29.5 -78.5t-86.5 -31.5t-85.5 31.5t-28.5 78.5z" />
<glyph unicode="&#xb8;" horiz-adv-x="506" d="M116 -328q79 0 122.5 26t43.5 73q0 44 -32 65t-130 30l32 134h133l-12 -52q152 -28 153 -173q0 -97 -80 -153.5t-223 -56.5z" />
<glyph unicode="&#xb9;" horiz-adv-x="750" d="M122 1218v128l355 117h18v-789h-157v601z" />
<glyph unicode="&#xba;" horiz-adv-x="931" d="M122 1049v74q0 158 94 255.5t248 97.5q155 0 249 -96.5t94 -262.5v-74q0 -158 -93.5 -255.5t-247.5 -97.5t-249 97t-95 262zM285 1043q0 -100 48.5 -157t132.5 -57t131 57.5t47 158.5v78q0 99 -48.5 156t-131.5 57q-81 0 -129 -55t-50 -152v-86z" />
<glyph unicode="&#xbb;" horiz-adv-x="994" d="M228 822l133 109q4 -4 26.5 -34.5t49 -85t48.5 -129.5t22 -161q0 -87 -22 -161t-48.5 -128.5t-49.5 -86.5t-26 -34l-131 110l17 23q17 23 36 63.5t36 95t17 118.5q0 63 -17 117.5t-37 96t-37 64.5zM490 130l21 30q22 30 48 83t47 123t21 155q0 82 -21 154t-47 124.5 t-48 82.5l-21 31l132 108q3 -3 31 -41.5t60.5 -104.5t59.5 -156.5t27 -197.5q0 -108 -27 -197.5t-59.5 -155.5t-60.5 -105t-31 -42z" />
<glyph unicode="&#xbc;" horiz-adv-x="1500" d="M85 1208v128l355 117h18v-789h-157v601zM339 184l711 1138l104 -66l-711 -1138zM780 271l377 518h161v-490h107v-130h-107v-169h-157v169h-375zM938 299h223v289l-17 -28z" />
<glyph unicode="&#xbd;" horiz-adv-x="1589" d="M80 1208v128l355 117h18v-789h-157v601zM295 184l711 1138l104 -66l-711 -1138zM864 538q0 114 83.5 188t215.5 74t209 -63.5t77 -173.5q0 -104 -107 -211l-84 -79l-176 -145h399v-128h-599v108l300 282q110 102 109 171q0 49 -32 79.5t-92 30.5q-76 0 -111 -38t-35 -95 h-157z" />
<glyph unicode="&#xbe;" horiz-adv-x="1592" d="M111 889h158q0 -45 39.5 -75t106.5 -30q70 0 106.5 30t36.5 81q0 113 -156 115h-88v116h84q74 0 110 30.5t36 78.5q0 45 -31.5 74t-101.5 29q-57 0 -94.5 -25.5t-37.5 -66.5h-157q0 98 81.5 159.5t205.5 61.5q137 0 215 -60.5t78 -164.5q0 -55 -35 -100.5t-101 -70.5 q149 -41 149 -184q0 -106 -85 -168.5t-221 -62.5q-132 0 -215 63t-83 170zM466 184l711 1138l104 -66l-711 -1138zM872 271l377 518h161v-490h107v-130h-107v-169h-157v169h-375zM1030 299h223v289l-17 -28z" />
<glyph unicode="&#xbf;" horiz-adv-x="968" d="M68 -5q0 174 160 348l109 113q67 78 66 224h185q-1 -106 -21.5 -169.5t-68.5 -122.5t-140 -155.5t-103 -195.5l-2 -37q0 -109 58 -166.5t167 -57.5q100 0 162.5 56.5t62.5 147.5h185q-2 -161 -114.5 -263t-295.5 -102q-196 0 -303 100.5t-107 279.5zM377 997q0 44 28 74 t82 30t81.5 -30t27.5 -74q0 -45 -27.5 -76t-81.5 -31t-82 31t-28 76z" />
<glyph unicode="&#xc0;" horiz-adv-x="1335" d="M28 0l556 1456h168l557 -1456h-197l-139 380h-610l-137 -380h-198zM362 1844h222l194 -294h-159zM421 538h495l-247 681z" />
<glyph unicode="&#xc1;" horiz-adv-x="1335" d="M28 0l556 1456h168l557 -1456h-197l-139 380h-610l-137 -380h-198zM421 538h495l-247 681zM570 1550l193 294h224l-268 -294h-149z" />
<glyph unicode="&#xc2;" horiz-adv-x="1335" d="M28 0l556 1456h168l557 -1456h-197l-139 380h-610l-137 -380h-198zM370 1562v12l246 272h112l247 -273v-11h-153l-150 171l-148 -171h-154zM421 538h495l-247 681z" />
<glyph unicode="&#xc3;" horiz-adv-x="1335" d="M28 0l556 1456h168l557 -1456h-197l-139 380h-610l-137 -380h-198zM321 1562q0 108 60.5 177t152.5 69q35 0 63 -9.5t76 -38.5t73.5 -38t56.5 -9q43 0 71.5 34t28.5 79l124 -11q0 -109 -61.5 -175.5t-153.5 -66.5q-41 0 -71 9.5t-78.5 40.5t-70 37.5t-49.5 6.5 q-41 0 -70 -31.5t-29 -80.5zM421 538h495l-247 681z" />
<glyph unicode="&#xc4;" horiz-adv-x="1335" d="M28 0l556 1456h168l557 -1456h-197l-139 380h-610l-137 -380h-198zM351 1681q0 45 27.5 75.5t80.5 30.5q54 0 82.5 -30.5t28.5 -75.5t-28 -75t-83 -30q-53 0 -80.5 30t-27.5 75zM421 538h495l-247 681zM781 1679q0 45 27.5 76t81.5 31t82 -31t28 -76t-28 -75t-82 -30 q-53 0 -81 30t-28 75z" />
<glyph unicode="&#xc5;" horiz-adv-x="1335" d="M28 0l556 1456h168l557 -1456h-197l-139 380h-610l-137 -380h-198zM421 538h495l-247 681zM457 1729q0 86 61.5 147.5t153.5 61.5t153.5 -61.5t61.5 -148.5q0 -86 -62 -145t-153 -59q-93 0 -154 59.5t-61 145.5zM556 1728q0 -46 33 -80t83 -34q47 0 81 33t34 82t-33 83.5 t-82 34.5q-51 0 -83.5 -35t-32.5 -84z" />
<glyph unicode="&#xc6;" horiz-adv-x="1914" d="M-14 0l880 1456h951v-152h-691l20 -471h590v-151h-584l22 -531h705v-151h-883l-15 353h-564l-205 -353h-226zM518 527h456l-31 733z" />
<glyph unicode="&#xc7;" horiz-adv-x="1332" d="M119 660v140q0 203 72.5 357t205.5 236.5t307 82.5q233 0 372.5 -130t163.5 -359h-193q-25 175 -108.5 253t-234.5 78q-183 0 -287.5 -136t-104.5 -387v-141q0 -238 99 -377.5t277 -139.5q159 0 245.5 72.5t113.5 252.5h193q-28 -232 -171 -357t-381 -125 q-258 0 -413.5 185t-155.5 495zM581 -337q79 0 123.5 26t44.5 72q0 45 -32.5 66.5t-130.5 29.5l32 134h134l-13 -52q153 -27 153 -172q0 -98 -80 -154.5t-223 -56.5z" />
<glyph unicode="&#xc8;" horiz-adv-x="1163" d="M169 0v1456h915v-159h-722v-466h630v-158h-630v-515h731v-158h-924zM308 1857h223l194 -295h-159z" />
<glyph unicode="&#xc9;" horiz-adv-x="1163" d="M169 0v1456h915v-159h-722v-466h630v-158h-630v-515h731v-158h-924zM516 1562l195 295h223l-268 -295h-150z" />
<glyph unicode="&#xca;" horiz-adv-x="1163" d="M169 0v1456h915v-159h-722v-466h630v-158h-630v-515h731v-158h-924zM318 1574v12l246 272h111l247 -274v-10h-153l-150 169l-149 -169h-152z" />
<glyph unicode="&#xcb;" horiz-adv-x="1163" d="M169 0v1456h915v-159h-722v-466h630v-158h-630v-515h731v-158h-924zM298 1694q0 45 27.5 75.5t81.5 30.5t81.5 -31t27.5 -75q0 -46 -27.5 -75.5t-81.5 -29.5t-81.5 29.5t-27.5 75.5zM728 1692q0 45 27.5 75.5t81.5 30.5t82 -31t28 -75q0 -46 -28 -76t-82 -30t-81.5 30 t-27.5 76z" />
<glyph unicode="&#xcc;" horiz-adv-x="556" d="M-32 1857h223l195 -295h-160zM183 0v1456h192v-1456h-192z" />
<glyph unicode="&#xcd;" horiz-adv-x="556" d="M176 1562l193 295h224l-268 -295h-149zM183 0v1456h192v-1456h-192z" />
<glyph unicode="&#xce;" horiz-adv-x="556" d="M-23 1574v12l246 272h112l246 -274v-10h-152l-149 169l-150 -169h-153zM183 0v1456h192v-1456h-192z" />
<glyph unicode="&#xcf;" horiz-adv-x="556" d="M-42 1694q0 45 27.5 75.5t81.5 30.5t82 -31t28 -75q0 -46 -28 -75.5t-82 -29.5q-53 0 -81 29.5t-28 75.5zM183 0v1456h192v-1456h-192zM388 1692q0 45 27.5 75.5t81.5 30.5t82 -31t28 -75q0 -46 -28 -76t-82 -30q-53 0 -81 30t-28 76z" />
<glyph unicode="&#xd0;" horiz-adv-x="1373" d="M37 666v151h162v639h411q190 0 336 -84t225.5 -238.5t80.5 -356.5v-93q0 -207 -79.5 -362t-227 -237.5t-343.5 -84.5h-403v666h-162zM391 158h201q222 0 345.5 136.5t124.5 384.5v94q0 248 -116 385.5t-331 138.5h-224v-480h282v-151h-282v-508z" />
<glyph unicode="&#xd1;" horiz-adv-x="1459" d="M169 0v1456h193l735 -1127v1127h191v-1456h-194l-732 1122v-1122h-193zM374 1562q0 108 60.5 177t154.5 69q34 0 62 -9.5t76.5 -38.5t73 -38t56.5 -9q43 0 71.5 34t28.5 79l124 -11q0 -109 -61.5 -175.5t-153.5 -66.5q-41 0 -71 9.5t-78 40.5t-70 37.5t-50 6.5 q-41 0 -70 -31.5t-29 -80.5z" />
<glyph unicode="&#xd2;" horiz-adv-x="1408" d="M118 669v104q0 210 73 371t206.5 246.5t305.5 85.5q175 0 308.5 -84.5t205.5 -245t72 -373.5v-92q0 -214 -72 -373.5t-204 -243.5t-309 -84q-171 0 -304 84.5t-206.5 241t-75.5 363.5zM309 681q0 -251 105.5 -394.5t289.5 -143.5q187 0 288.5 135.5t105.5 389.5v108 q0 259 -104 397t-291 138q-182 0 -286.5 -138t-107.5 -386v-106zM394 1846h224l194 -294h-159z" />
<glyph unicode="&#xd3;" horiz-adv-x="1408" d="M118 669v104q0 210 73 371t206.5 246.5t305.5 85.5q175 0 308.5 -84.5t205.5 -245t72 -373.5v-92q0 -214 -72 -373.5t-204 -243.5t-309 -84q-171 0 -304 84.5t-206.5 241t-75.5 363.5zM309 681q0 -251 105.5 -394.5t289.5 -143.5q187 0 288.5 135.5t105.5 389.5v108 q0 259 -104 397t-291 138q-182 0 -286.5 -138t-107.5 -386v-106zM605 1552l192 294h224l-268 -294h-148z" />
<glyph unicode="&#xd4;" horiz-adv-x="1408" d="M118 669v104q0 210 73 371t206.5 246.5t305.5 85.5q175 0 308.5 -84.5t205.5 -245t72 -373.5v-92q0 -214 -72 -373.5t-204 -243.5t-309 -84q-171 0 -304 84.5t-206.5 241t-75.5 363.5zM309 681q0 -251 105.5 -394.5t289.5 -143.5q187 0 288.5 135.5t105.5 389.5v108 q0 259 -104 397t-291 138q-182 0 -286.5 -138t-107.5 -386v-106zM404 1564v12l246 272h112l247 -274v-10h-152l-152 171l-148 -171h-153z" />
<glyph unicode="&#xd5;" horiz-adv-x="1408" d="M118 669v104q0 210 73 371t206.5 246.5t305.5 85.5q175 0 308.5 -84.5t205.5 -245t72 -373.5v-92q0 -214 -72 -373.5t-204 -243.5t-309 -84q-171 0 -304 84.5t-206.5 241t-75.5 363.5zM309 681q0 -251 105.5 -394.5t289.5 -143.5q187 0 288.5 135.5t105.5 389.5v108 q0 259 -104 397t-291 138q-182 0 -286.5 -138t-107.5 -386v-106zM354 1564q0 108 60.5 177t153.5 69q35 0 63 -9.5t76 -38t73.5 -38t56.5 -9.5q43 0 72 34t29 79l123 -12q0 -109 -61 -175.5t-154 -66.5q-41 0 -71.5 10t-78.5 41t-69.5 38t-49.5 7q-41 0 -70.5 -32.5 t-29.5 -80.5z" />
<glyph unicode="&#xd6;" horiz-adv-x="1408" d="M118 669v104q0 210 73 371t206.5 246.5t305.5 85.5q175 0 308.5 -84.5t205.5 -245t72 -373.5v-92q0 -214 -72 -373.5t-204 -243.5t-309 -84q-171 0 -304 84.5t-206.5 241t-75.5 363.5zM309 681q0 -251 105.5 -394.5t289.5 -143.5q187 0 288.5 135.5t105.5 389.5v108 q0 259 -104 397t-291 138q-182 0 -286.5 -138t-107.5 -386v-106zM386 1683q0 45 27.5 75.5t80.5 30.5q54 0 82.5 -31t28.5 -75q0 -45 -28 -75t-83 -30q-53 0 -80.5 30t-27.5 75zM815 1681q0 45 28 76t81 31q54 0 82.5 -31t28.5 -76t-28 -75t-83 -30q-53 0 -81 30t-28 75z " />
<glyph unicode="&#xd7;" horiz-adv-x="1091" d="M89 329l330 336l-328 335l119 123l329 -335l329 335l119 -123l-328 -335l330 -336l-119 -123l-331 337l-331 -337z" />
<glyph unicode="&#xd8;" horiz-adv-x="1407" d="M118 690v83q0 210 73 371t206.5 246.5t305.5 85.5q214 0 362 -125l103 165h141l-159 -255q136 -187 139 -481v-99q0 -215 -72 -374t-204 -243t-308 -84q-171 0 -302 82l-97 -155h-142l144 231q-190 192 -190 552zM309 681q0 -244 98 -385l564 904q-102 110 -268 111 q-183 0 -287 -138.5t-107 -384.5v-107zM493 207q91 -63 212 -64q186 0 288 135.5t105 388.5v108q0 183 -56 313z" />
<glyph unicode="&#xd9;" horiz-adv-x="1328" d="M140 464v992h189v-986q0 -158 87.5 -245.5t247.5 -87.5q163 0 250 87t87 245v987h193v-989q-1 -207 -129.5 -338t-348.5 -147l-52 -2q-238 0 -380 129.5t-144 354.5zM355 1844h224l194 -294h-159z" />
<glyph unicode="&#xda;" horiz-adv-x="1328" d="M140 464v992h189v-986q0 -158 87.5 -245.5t247.5 -87.5q163 0 250 87t87 245v987h193v-989q-1 -207 -129.5 -338t-348.5 -147l-52 -2q-238 0 -380 129.5t-144 354.5zM565 1550l193 294h224l-268 -294h-149z" />
<glyph unicode="&#xdb;" horiz-adv-x="1328" d="M140 464v992h189v-986q0 -158 87.5 -245.5t247.5 -87.5q163 0 250 87t87 245v987h193v-989q-1 -207 -129.5 -338t-348.5 -147l-52 -2q-238 0 -380 129.5t-144 354.5zM365 1562v12l246 272h112l247 -273v-11h-153l-149 171l-151 -171h-152z" />
<glyph unicode="&#xdc;" horiz-adv-x="1328" d="M140 464v992h189v-986q0 -158 87.5 -245.5t247.5 -87.5q163 0 250 87t87 245v987h193v-989q-1 -207 -129.5 -338t-348.5 -147l-52 -2q-238 0 -380 129.5t-144 354.5zM346 1681q0 45 28 75.5t81 30.5q54 0 82 -30.5t28 -75.5t-28 -75t-82 -30q-53 0 -81 30t-28 75z M776 1679q0 45 28 76t81 31q54 0 82.5 -31t28.5 -76t-28.5 -75t-82.5 -30q-53 0 -81 30t-28 75z" />
<glyph unicode="&#xdd;" horiz-adv-x="1229" d="M15 1456h219l379 -731l381 731h217l-501 -913v-543h-194v543zM515 1550l194 294h223l-269 -294h-148z" />
<glyph unicode="&#xde;" horiz-adv-x="1210" d="M166 0v1456h186v-293h279q147 0 257 -52.5t169.5 -149.5t59.5 -223q0 -194 -132 -309.5t-359 -115.5h-274v-313h-186zM352 465h277q142 0 222 75.5t80 195.5q0 123 -80 198.5t-216 76.5h-283v-546z" />
<glyph unicode="&#xdf;" horiz-adv-x="1218" d="M139 0v1111q0 207 103.5 325t289.5 118q181 0 279 -89.5t98 -248.5q0 -126 -64 -227t-64 -170q0 -51 37.5 -98.5t131.5 -119.5t137 -140t43 -144q0 -159 -101.5 -248t-283.5 -89q-81 0 -171.5 22t-128.5 50l43 155q49 -31 116.5 -53.5t120.5 -22.5q107 0 163.5 47 t56.5 129q0 52 -37 100t-131.5 121.5t-138 142.5t-43.5 150q0 89 69.5 192.5t69.5 187.5q0 93 -52 147t-140 54q-218 0 -218 -293v-1109h-185z" />
<glyph unicode="&#xe0;" horiz-adv-x="1113" d="M109 300q0 169 128.5 262.5t360.5 93.5h181v85q0 97 -58.5 155t-170.5 58q-100 0 -166 -50.5t-66 -121.5h-187q0 81 57.5 156.5t156 119.5t216.5 44q188 0 293.5 -93.5t109.5 -256.5v-499q0 -149 38 -237v-16h-194q-15 32 -26 114q-129 -134 -308 -134 q-160 0 -262.5 90.5t-102.5 229.5zM270 1534h223l194 -294h-159zM294 326q0 -86 57.5 -135.5t148.5 -49.5q88 0 166 45t113 117v222h-145q-340 0 -340 -199z" />
<glyph unicode="&#xe1;" horiz-adv-x="1113" d="M109 300q0 169 128.5 262.5t360.5 93.5h181v85q0 97 -58.5 155t-170.5 58q-100 0 -166 -50.5t-66 -121.5h-187q0 81 57.5 156.5t156 119.5t216.5 44q188 0 293.5 -93.5t109.5 -256.5v-499q0 -149 38 -237v-16h-194q-15 32 -26 114q-129 -134 -308 -134 q-160 0 -262.5 90.5t-102.5 229.5zM294 326q0 -86 57.5 -135.5t148.5 -49.5q88 0 166 45t113 117v222h-145q-340 0 -340 -199zM479 1240l193 294h225l-268 -294h-150z" />
<glyph unicode="&#xe2;" horiz-adv-x="1113" d="M109 300q0 169 128.5 262.5t360.5 93.5h181v85q0 97 -58.5 155t-170.5 58q-100 0 -166 -50.5t-66 -121.5h-187q0 81 57.5 156.5t156 119.5t216.5 44q188 0 293.5 -93.5t109.5 -256.5v-499q0 -149 38 -237v-16h-194q-15 32 -26 114q-129 -134 -308 -134 q-160 0 -262.5 90.5t-102.5 229.5zM280 1252v12l245 272h112l247 -273v-11h-153l-150 170l-149 -170h-152zM294 326q0 -86 57.5 -135.5t148.5 -49.5q88 0 166 45t113 117v222h-145q-340 0 -340 -199z" />
<glyph unicode="&#xe3;" horiz-adv-x="1113" d="M109 300q0 169 128.5 262.5t360.5 93.5h181v85q0 97 -58.5 155t-170.5 58q-100 0 -166 -50.5t-66 -121.5h-187q0 81 57.5 156.5t156 119.5t216.5 44q188 0 293.5 -93.5t109.5 -256.5v-499q0 -149 38 -237v-16h-194q-15 32 -26 114q-129 -134 -308 -134 q-160 0 -262.5 90.5t-102.5 229.5zM229 1252q0 107 60.5 177t153.5 70q34 0 62.5 -10t76.5 -39.5t73.5 -38t56.5 -8.5q43 0 71.5 34t28.5 79l124 -12q0 -108 -61.5 -174.5t-153.5 -66.5q-42 0 -71.5 9.5t-77.5 41t-70 37.5t-50 6q-41 0 -70 -31.5t-29 -80.5zM294 326 q0 -86 57.5 -135.5t148.5 -49.5q88 0 166 45t113 117v222h-145q-340 0 -340 -199z" />
<glyph unicode="&#xe4;" horiz-adv-x="1113" d="M109 300q0 169 128.5 262.5t360.5 93.5h181v85q0 97 -58.5 155t-170.5 58q-100 0 -166 -50.5t-66 -121.5h-187q0 81 57.5 156.5t156 119.5t216.5 44q188 0 293.5 -93.5t109.5 -256.5v-499q0 -149 38 -237v-16h-194q-15 32 -26 114q-129 -134 -308 -134 q-160 0 -262.5 90.5t-102.5 229.5zM260 1371q0 45 27 75.5t82 30.5q54 0 82 -30.5t28 -75.5t-28 -75t-82 -30t-81.5 30t-27.5 75zM294 326q0 -86 57.5 -135.5t148.5 -49.5q88 0 166 45t113 117v222h-145q-340 0 -340 -199zM690 1369q0 45 27 76t82 31q54 0 81.5 -31 t27.5 -76t-27.5 -75t-81.5 -30t-81.5 30t-27.5 75z" />
<glyph unicode="&#xe5;" horiz-adv-x="1113" d="M109 300q0 169 128.5 262.5t360.5 93.5h181v85q0 97 -58.5 155t-170.5 58q-100 0 -166 -50.5t-66 -121.5h-187q0 81 57.5 156.5t156 119.5t216.5 44q188 0 293.5 -93.5t109.5 -256.5v-499q0 -149 38 -237v-16h-194q-15 32 -26 114q-129 -134 -308 -134 q-160 0 -262.5 90.5t-102.5 229.5zM294 326q0 -86 57.5 -135.5t148.5 -49.5q88 0 166 45t113 117v222h-145q-340 0 -340 -199zM366 1419q0 86 61.5 147t153.5 61q93 0 154 -61t61 -148q0 -86 -62 -144.5t-153 -58.5q-92 0 -153.5 59t-61.5 145zM466 1418q0 -46 33 -80 t82 -34t82.5 33t33.5 82t-33.5 83.5t-82.5 34.5q-50 0 -82.5 -35t-32.5 -84z" />
<glyph unicode="&#xe6;" horiz-adv-x="1729" d="M78 304q0 158 113.5 244.5t334.5 86.5h223v85q0 107 -55 168.5t-159 61.5q-105 0 -175 -55t-70 -136l-184 19q0 142 121 233t308 91q115 0 203 -41.5t138 -124.5q63 79 150 122.5t192 43.5q210 0 326 -128.5t116 -361.5v-115h-728q7 -176 94 -271.5t236 -95.5 q148 0 269 76l47 31l64 -136q-157 -121 -380 -121q-261 0 -397 180q-65 -86 -178 -133t-254 -47q-167 0 -261 86.5t-94 237.5zM264 300q0 -77 53 -123.5t152 -46.5q72 0 151 37t129 91v237h-228q-117 -2 -187 -57t-70 -138zM937 640h538v31q0 132 -67 205.5t-190 73.5 q-115 0 -189.5 -85.5t-91.5 -224.5z" />
<glyph unicode="&#xe7;" horiz-adv-x="1072" d="M93 531v31q0 158 57 281t166.5 191t256.5 68q182 0 302.5 -109t128.5 -282h-174q-9 104 -80.5 171.5t-176.5 67.5q-142 0 -218.5 -102t-76.5 -293v-35q0 -187 76.5 -288t219.5 -101q99 0 173 60t83 150h174q-5 -93 -64 -177t-157.5 -134t-208.5 -50q-222 0 -351.5 147 t-129.5 404zM435 -337q79 0 122.5 26t43.5 72q0 45 -32 66.5t-130 29.5l32 134h134l-13 -52q152 -27 152 -172q0 -98 -79.5 -154.5t-221.5 -56.5z" />
<glyph unicode="&#xe8;" horiz-adv-x="1085" d="M93 511v34q0 160 61.5 287t171.5 198.5t240 71.5q211 0 328 -139t117 -398v-77h-732q4 -160 93 -258.5t226 -98.5q99 0 167 40t119 107l113 -89q-136 -209 -408 -209q-221 0 -358.5 144.5t-137.5 386.5zM254 1534h222l195 -294h-159zM284 640h541v14q-7 141 -75 218.5 t-184 77.5q-112 0 -188 -82t-94 -228z" />
<glyph unicode="&#xe9;" horiz-adv-x="1085" d="M93 511v34q0 160 61.5 287t171.5 198.5t240 71.5q211 0 328 -139t117 -398v-77h-732q4 -160 93 -258.5t226 -98.5q99 0 167 40t119 107l113 -89q-136 -209 -408 -209q-221 0 -358.5 144.5t-137.5 386.5zM284 640h541v14q-7 141 -75 218.5t-184 77.5q-112 0 -188 -82 t-94 -228zM463 1240l193 294h224l-268 -294h-149z" />
<glyph unicode="&#xea;" horiz-adv-x="1085" d="M93 511v34q0 160 61.5 287t171.5 198.5t240 71.5q211 0 328 -139t117 -398v-77h-732q4 -160 93 -258.5t226 -98.5q99 0 167 40t119 107l113 -89q-136 -209 -408 -209q-221 0 -358.5 144.5t-137.5 386.5zM264 1252v12l245 272h112l246 -273v-11h-152l-150 170l-149 -170 h-152zM284 640h541v14q-7 141 -75 218.5t-184 77.5q-112 0 -188 -82t-94 -228z" />
<glyph unicode="&#xeb;" horiz-adv-x="1085" d="M93 511v34q0 160 61.5 287t171.5 198.5t240 71.5q211 0 328 -139t117 -398v-77h-732q4 -160 93 -258.5t226 -98.5q99 0 167 40t119 107l113 -89q-136 -209 -408 -209q-221 0 -358.5 144.5t-137.5 386.5zM244 1371q0 45 27.5 75.5t81.5 30.5t82 -30.5t28 -75.5t-28 -75 t-82 -30q-53 0 -81 30t-28 75zM284 640h541v14q-7 141 -75 218.5t-184 77.5q-112 0 -188 -82t-94 -228zM674 1369q0 45 27.5 76t81.5 31t82 -31t28 -76t-28 -75t-82 -30q-53 0 -81 30t-28 75z" />
<glyph unicode="&#xec;" horiz-adv-x="506" d="M-58 1533h223l195 -294h-160zM156 0v1082h185v-1082h-185z" />
<glyph unicode="&#xed;" horiz-adv-x="506" d="M150 1239l193 294h224l-268 -294h-149zM156 0v1082h185v-1082h-185z" />
<glyph unicode="&#xee;" horiz-adv-x="506" d="M-49 1251v13l247 271h111l247 -273v-11h-153l-150 169l-149 -169h-153zM156 0v1082h185v-1082h-185z" />
<glyph unicode="&#xef;" horiz-adv-x="506" d="M-68 1370q0 45 27.5 75.5t81.5 30.5t81.5 -30.5t27.5 -75.5t-27.5 -75t-81.5 -30t-81.5 30t-27.5 75zM156 0v1082h185v-1082h-185zM362 1369q0 45 27.5 75.5t81.5 30.5t82 -31t28 -75q0 -45 -28 -75t-82 -30t-81.5 30t-27.5 75z" />
<glyph unicode="&#xf0;" horiz-adv-x="1200" d="M126 467q0 148 56 264t159.5 181t232.5 65q163 0 284 -114q-48 195 -189 336l-218 -148l-73 99l192 131q-132 91 -315 140l57 159q240 -53 414 -193l189 129l73 -100l-168 -115q249 -264 249 -673v-93q0 -158 -58.5 -284.5t-166.5 -198.5t-242 -72q-135 0 -245 64.5 t-170.5 176.5t-60.5 246zM311 467q0 -140 83.5 -238t211.5 -98q125 0 201.5 113t76.5 297v94l-2 56q-34 61 -103 97.5t-161 36.5q-145 0 -226 -95.5t-81 -262.5z" />
<glyph unicode="&#xf1;" d="M140 0v1082h174l7 -136q124 157 325 156q342 0 345 -387v-715h-185v716q-1 118 -53.5 173.5t-163.5 55.5q-91 0 -158.5 -48t-105.5 -126v-771h-185zM220 1252q0 107 60.5 177t153.5 70q36 0 63.5 -10t75.5 -39.5t73.5 -38t56.5 -8.5q43 0 71.5 34t28.5 79l124 -12 q0 -108 -61.5 -174.5t-153.5 -66.5q-41 0 -71 9.5t-78.5 41t-70 37.5t-49.5 6q-41 0 -69.5 -31.5t-28.5 -80.5z" />
<glyph unicode="&#xf2;" horiz-adv-x="1168" d="M91 538v13q0 159 62.5 286t174 196t253.5 69q222 0 359 -153t137 -408v-12q0 -158 -61 -283.5t-173.5 -195.5t-258.5 -70q-220 0 -356.5 153t-136.5 405zM264 1534h223l194 -294h-158zM278 529q0 -180 83 -289t223 -109q141 0 224 110.5t83 309.5q0 178 -84.5 288.5 t-225.5 110.5q-136 0 -219.5 -109t-83.5 -312z" />
<glyph unicode="&#xf3;" horiz-adv-x="1168" d="M91 538v13q0 159 62.5 286t174 196t253.5 69q222 0 359 -153t137 -408v-12q0 -158 -61 -283.5t-173.5 -195.5t-258.5 -70q-220 0 -356.5 153t-136.5 405zM278 529q0 -180 83 -289t223 -109q141 0 224 110.5t83 309.5q0 178 -84.5 288.5t-225.5 110.5q-136 0 -219.5 -109 t-83.5 -312zM473 1240l193 294h224l-268 -294h-149z" />
<glyph unicode="&#xf4;" horiz-adv-x="1168" d="M91 538v13q0 159 62.5 286t174 196t253.5 69q222 0 359 -153t137 -408v-12q0 -158 -61 -283.5t-173.5 -195.5t-258.5 -70q-220 0 -356.5 153t-136.5 405zM272 1252v12l247 272h112l247 -273v-11h-153l-150 170l-148 -170h-155zM278 529q0 -180 83 -289t223 -109 q141 0 224 110.5t83 309.5q0 178 -84.5 288.5t-225.5 110.5q-136 0 -219.5 -109t-83.5 -312z" />
<glyph unicode="&#xf5;" horiz-adv-x="1168" d="M91 538v13q0 159 62.5 286t174 196t253.5 69q222 0 359 -153t137 -408v-12q0 -158 -61 -283.5t-173.5 -195.5t-258.5 -70q-220 0 -356.5 153t-136.5 405zM223 1252q0 107 61 177t152 70q36 0 64 -10t75.5 -39.5t73.5 -38t56 -8.5q45 0 73 34t28 79l124 -12 q0 -108 -61.5 -174.5t-153.5 -66.5q-41 0 -71 9.5t-79 41t-70 37.5t-49 6q-41 0 -70 -31.5t-29 -80.5zM278 529q0 -180 83 -289t223 -109q141 0 224 110.5t83 309.5q0 178 -84.5 288.5t-225.5 110.5q-136 0 -219.5 -109t-83.5 -312z" />
<glyph unicode="&#xf6;" horiz-adv-x="1168" d="M91 538v13q0 159 62.5 286t174 196t253.5 69q222 0 359 -153t137 -408v-12q0 -158 -61 -283.5t-173.5 -195.5t-258.5 -70q-220 0 -356.5 153t-136.5 405zM254 1371q0 45 27.5 75.5t81.5 30.5q53 0 81.5 -30.5t28.5 -75.5t-28 -75t-82 -30t-81.5 30t-27.5 75zM278 529 q0 -180 83 -289t223 -109q141 0 224 110.5t83 309.5q0 178 -84.5 288.5t-225.5 110.5q-136 0 -219.5 -109t-83.5 -312zM684 1369q0 45 27.5 76t81.5 31q53 0 81.5 -31t28.5 -76t-28 -75t-82 -30t-81.5 30t-27.5 75z" />
<glyph unicode="&#xf7;" horiz-adv-x="1169" d="M71 600v184h998v-184h-998zM461 281q0 47 28.5 79.5t85.5 32.5t86.5 -32t29.5 -80q0 -46 -29.5 -77.5t-86.5 -31.5t-85.5 31.5t-28.5 77.5zM461 1098q0 48 28.5 80t85.5 32t86.5 -32t29.5 -80q0 -47 -29.5 -78t-86.5 -31t-85.5 31t-28.5 78z" />
<glyph unicode="&#xf8;" horiz-adv-x="1160" d="M91 551q0 159 61.5 285.5t174 196t254.5 69.5q110 0 204 -41l74 147h124l-102 -205q196 -154 196 -474q0 -158 -62 -284.5t-174.5 -195.5t-256.5 -69q-104 0 -190 35l-73 -149h-124l99 203q-205 149 -205 482zM275 529q0 -194 98 -305l343 694q-61 32 -135 32 q-137 0 -221.5 -109t-84.5 -312zM463 157q54 -26 121 -26q139 0 222.5 109.5t83.5 294.5v16q0 182 -87 293z" />
<glyph unicode="&#xf9;" d="M136 378v704h185v-699q0 -246 200 -246q212 0 282 158v787h184v-1082h-175l-4 107q-108 -126 -317 -127q-172 0 -263 100.5t-92 297.5zM256 1534h223l194 -294h-159z" />
<glyph unicode="&#xfa;" d="M136 378v704h185v-699q0 -246 200 -246q212 0 282 158v787h184v-1082h-175l-4 107q-108 -126 -317 -127q-172 0 -263 100.5t-92 297.5zM466 1240l192 294h224l-268 -294h-148z" />
<glyph unicode="&#xfb;" d="M136 378v704h185v-699q0 -246 200 -246q212 0 282 158v787h184v-1082h-175l-4 107q-108 -126 -317 -127q-172 0 -263 100.5t-92 297.5zM265 1252v12l246 272h111l249 -273v-11h-154l-150 170l-149 -170h-153z" />
<glyph unicode="&#xfc;" d="M136 378v704h185v-699q0 -246 200 -246q212 0 282 158v787h184v-1082h-175l-4 107q-108 -126 -317 -127q-172 0 -263 100.5t-92 297.5zM246 1371q0 45 27.5 75.5t80.5 30.5q54 0 83 -30.5t29 -75.5t-28.5 -75t-83.5 -30q-53 0 -80.5 30t-27.5 75zM676 1369q0 45 27.5 76 t80.5 31q54 0 82.5 -31t28.5 -76t-28 -75t-83 -30q-53 0 -80.5 30t-27.5 75z" />
<glyph unicode="&#xfd;" horiz-adv-x="968" d="M22 1082h202l270 -811l251 811h199l-435 -1249q-102 -270 -321 -269l-36 2l-68 13v150l50 -3q93 0 146 37.5t87 138.5l41 110zM406 1240l192 294h225l-268 -294h-149z" />
<glyph unicode="&#xfe;" horiz-adv-x="1180" d="M149 -416v1952h185v-566q113 133 307 132q195 0 308.5 -147t113.5 -408v-18q0 -247 -113 -398t-306 -151q-197 0 -310 125v-521h-185zM334 280q83 -149 255 -149q133 0 211 105.5t78 313.5q0 183 -78 289t-214 106q-168 0 -252 -149v-516z" />
<glyph unicode="&#xff;" horiz-adv-x="968" d="M22 1082h202l270 -811l251 811h199l-435 -1249q-102 -270 -321 -269l-36 2l-68 13v150l50 -3q93 0 146 37.5t87 138.5l41 110zM187 1371q0 45 27.5 75.5t81.5 30.5t82 -30.5t28 -75.5t-28 -75t-82 -30q-53 0 -81 30t-28 75zM617 1369q0 45 27.5 76t81.5 31t82 -31t28 -76 t-28 -75t-82 -30q-53 0 -81 30t-28 75z" />
<glyph unicode="&#x2c6;" horiz-adv-x="964" d="M169 1252v12l246 272h112l247 -274v-10h-153l-150 170l-149 -170h-153z" />
<glyph unicode="&#x2dc;" horiz-adv-x="966" d="M123 1248q0 107 60.5 177t153.5 70q36 0 63.5 -10t75.5 -39t73.5 -38t56.5 -9q43 0 71.5 34t28.5 79l124 -12q0 -109 -61.5 -175.5t-153.5 -66.5q-41 0 -71 10t-78.5 41t-70 37.5t-49.5 6.5q-41 0 -70 -31.5t-29 -80.5z" />
<glyph unicode="&#x2000;" horiz-adv-x="969" />
<glyph unicode="&#x2001;" horiz-adv-x="1938" />
<glyph unicode="&#x2002;" horiz-adv-x="969" />
<glyph unicode="&#x2003;" horiz-adv-x="1938" />
<glyph unicode="&#x2004;" horiz-adv-x="646" />
<glyph unicode="&#x2005;" horiz-adv-x="484" />
<glyph unicode="&#x2006;" horiz-adv-x="323" />
<glyph unicode="&#x2007;" horiz-adv-x="323" />
<glyph unicode="&#x2008;" horiz-adv-x="242" />
<glyph unicode="&#x2009;" horiz-adv-x="387" />
<glyph unicode="&#x200a;" horiz-adv-x="107" />
<glyph unicode="&#x2010;" horiz-adv-x="565" d="M37 543v151h488v-151h-488z" />
<glyph unicode="&#x2011;" horiz-adv-x="565" d="M37 543v151h488v-151h-488z" />
<glyph unicode="&#x2012;" horiz-adv-x="565" d="M37 543v151h488v-151h-488z" />
<glyph unicode="&#x2013;" horiz-adv-x="1343" d="M163 651v151h1002v-151h-1002z" />
<glyph unicode="&#x2014;" horiz-adv-x="1599" d="M145 651v151h1336v-151h-1336z" />
<glyph unicode="&#x2018;" horiz-adv-x="408" d="M96 1073v116q0 102 48.5 202t125.5 164l106 -72q-93 -126 -96 -274v-136h-184z" />
<glyph unicode="&#x2019;" horiz-adv-x="408" d="M48 1118q93 130 96 274v144h183v-130q-1 -100 -49.5 -199.5t-124.5 -160.5z" />
<glyph unicode="&#x201a;" horiz-adv-x="406" d="M36 -210q92 127 94 273v118h185v-100q0 -101 -49 -202t-125 -162z" />
<glyph unicode="&#x201c;" horiz-adv-x="723" d="M104 1073v116q0 102 48.5 202t125.5 164l106 -72q-93 -126 -96 -274v-136h-184zM419 1073v116q0 102 48.5 202t125.5 164l106 -72q-93 -126 -96 -274v-136h-184z" />
<glyph unicode="&#x201d;" horiz-adv-x="731" d="M60 1118q93 130 96 274v144h183v-130q-1 -100 -49 -199.5t-125 -160.5zM367 1118q93 130 96 274v144h183v-130q-1 -100 -49.5 -199.5t-124.5 -160.5z" />
<glyph unicode="&#x201e;" horiz-adv-x="705" d="M36 -229q92 137 94 290v185h185v-164q0 -108 -49 -213.5t-125 -169.5zM332 -229q91 137 94 290v185h186v-164q0 -107 -49 -211.5t-126 -171.5z" />
<glyph unicode="&#x2022;" horiz-adv-x="690" d="M138 734v38q0 87 55.5 143t147.5 56q91 0 148 -54.5t57 -147.5v-37q0 -87 -55 -142t-149 -55q-93 0 -148.5 55.5t-55.5 143.5z" />
<glyph unicode="&#x2026;" horiz-adv-x="1370" d="M148 97q0 48 28.5 80t85.5 32t86.5 -32t29.5 -80q0 -46 -29.5 -77t-86.5 -31t-85.5 31t-28.5 77zM585 97q0 48 28.5 80t85.5 32t86.5 -32t29.5 -80q0 -46 -29.5 -77t-86.5 -31t-85.5 31t-28.5 77zM1000 97q0 48 28.5 80t85.5 32t86.5 -32t29.5 -80q0 -46 -29.5 -77 t-86.5 -31t-85.5 31t-28.5 77z" />
<glyph unicode="&#x202f;" horiz-adv-x="387" />
<glyph unicode="&#x2039;" horiz-adv-x="614" d="M108 541v19l295 389h141l-258 -399l258 -397h-141z" />
<glyph unicode="&#x203a;" horiz-adv-x="614" d="M89 152l258 398l-258 399h142l295 -389v-19l-295 -389h-142z" />
<glyph unicode="&#x205f;" horiz-adv-x="484" />
<glyph unicode="&#x25fc;" horiz-adv-x="1081" d="M0 0v1082h1082v-1082h-1082z" />
</font>
</defs>
</svg>
