<?xml version="1.0" standalone="no"?>
<!DOCTYPE svg PUBLIC "-//W3C//DTD SVG 1.1//EN" "http://www.w3.org/Graphics/SVG/1.1/DTD/svg11.dtd" >
<svg xmlns="http://www.w3.org/2000/svg" xmlns:xlink="http://www.w3.org/1999/xlink" version="1.1">
<metadata></metadata>
<defs>
<font id="iransanswebfanummedium" horiz-adv-x="672" >
<font-face units-per-em="2048" ascent="1638" descent="-410" />
<missing-glyph horiz-adv-x="619" />
<glyph horiz-adv-x="0" />
<glyph unicode="&#xd;" horiz-adv-x="536" />
<glyph horiz-adv-x="0" />
<glyph horiz-adv-x="0" />
<glyph unicode=" "  horiz-adv-x="619" />
<glyph unicode="&#x09;" horiz-adv-x="619" />
<glyph unicode="&#xa0;" horiz-adv-x="619" />
<glyph unicode="!" horiz-adv-x="549" d="M102 60l170 170l171 -171l-170 -170zM150 1456h256l-24 -1077h-209z" />
<glyph unicode="&#x22;" horiz-adv-x="664" d="M101 1012v524h174v-137l-35 -387h-139zM402 1012v524h174v-137l-35 -387h-139z" />
<glyph unicode="#" horiz-adv-x="1250" d="M96 410v158h261l58 313h-243v159h273l78 416h167l-78 -416h225l78 416h167l-78 -416h208v-159h-238l-58 -313h221v-158h-251l-76 -410h-167l76 410h-224l-76 -410h-168l76 410h-231zM525 568h224l58 313h-224z" />
<glyph unicode="$" horiz-adv-x="1163" d="M100 443h243q0 -126 63.5 -195t179.5 -69q114 0 173.5 55t59.5 146q0 85 -54 140.5t-180 100t-196 82.5q-233 125 -233 370q0 166 101 273t274 127v218h160v-220q174 -25 269 -147.5t95 -318.5h-242q0 126 -56.5 198.5t-153.5 72.5q-96 0 -150 -52t-54 -149 q0 -86 53.5 -139t181.5 -100t201 -87t123 -91.5t77 -118.5t27 -157q0 -169 -103.5 -274t-288.5 -124v-195h-159v194q-198 22 -304.5 142t-106.5 318z" />
<glyph unicode="%" horiz-adv-x="1503" d="M99 1105v71q0 132 85 216.5t223 84.5q140 0 224.5 -84.5t84.5 -221.5v-72q0 -131 -84.5 -215t-222.5 -84q-134 0 -222 82.5t-88 222.5zM269 1099q0 -69 38.5 -111.5t101.5 -42.5q62 0 100 42.5t38 115.5v73q0 69 -38.5 112t-101.5 43t-100.5 -43.5t-37.5 -114.5v-74z M334 181l711 1138l125 -72l-711 -1138zM799 284v73q0 134 87 217t222 83q136 0 222.5 -83t86.5 -224v-71q0 -130 -83.5 -214.5t-223.5 -84.5q-141 0 -226 83.5t-85 220.5zM969 279q0 -68 39.5 -111.5t101.5 -43.5q63 0 100 41.5t37 116.5v75q0 70 -39 112t-100 42t-100 -42 t-39 -116v-74z" />
<glyph unicode="&#x26;" horiz-adv-x="1308" d="M86 393q0 102 55 186t217 200q-85 107 -118.5 182t-33.5 145q0 171 104 270.5t280 99.5q158 0 260 -93.5t102 -231.5q0 -92 -46 -168t-151 -152l-99 -72l281 -332q61 119 61 267h211q0 -269 -126 -441l214 -253h-282l-82 97q-156 -117 -372 -117t-345.5 115t-129.5 298z M329 401q0 -101 64.5 -164t174.5 -63q123 0 230 82l-318 375l-31 -22q-120 -91 -120 -208zM434 1112q0 -85 103 -211l111 76l31 25q61 55 62 141q0 57 -43 97.5t-109 40.5q-70 0 -112.5 -48t-42.5 -121z" />
<glyph unicode="'" horiz-adv-x="346" d="M82 1020v516h185v-125l-26 -391h-159z" />
<glyph unicode="(" horiz-adv-x="833" d="M38 575v30q3 94 21.5 187t51.5 181.5t79 173t102 162.5v-1q53 73 114.5 144t148.5 147l160 -200l-36 -36t-55.5 -58t-64 -73t-61.5 -80q-33 -46 -67 -107t-62.5 -132.5t-48.5 -152t-23 -163.5q0 -103 28 -210.5t83 -214.5t138.5 -213.5t192.5 -207.5l-173 -193 q-264 246 -396 500t-132 517z" />
<glyph unicode=")" horiz-adv-x="863" d="M126 -249q107 102 187.5 208t134.5 213t81.5 214t27.5 211q-4 84 -23.5 164t-47 151.5t-60.5 132.5t-65 107q-28 40 -61 80t-62.5 73t-54 58t-34.5 36l156 200q83 -77 143.5 -147.5t111.5 -143.5v1q55 -77 99.5 -162t76.5 -173.5t50 -181.5t22 -187v-30 q0 -264 -129 -517.5t-386 -499.5z" />
<glyph unicode="*" horiz-adv-x="904" d="M27 1060l55 169l302 -117l-15 344h179l-15 -350l297 115l54 -172l-310 -88l200 -266l-145 -106l-180 288l-178 -279l-146 102l207 272z" />
<glyph unicode="+" horiz-adv-x="1140" d="M68 579v222h382v405h236v-405h380v-222h-380v-433h-236v433h-382z" />
<glyph unicode="," horiz-adv-x="449" d="M28 -250q59 91 80 158.5t22 137.5v189h219l-1 -175q-1 -106 -53.5 -212.5t-135.5 -175.5z" />
<glyph unicode="-" d="M71 521v196h525v-196h-525z" />
<glyph unicode="." horiz-adv-x="616" d="M145 139q0 62 40 103.5t112 41.5q73 0 113.5 -41.5t40.5 -104.5q0 -61 -40.5 -101.5t-113.5 -40.5q-70 0 -111 40t-41 103z" />
<glyph unicode="/" horiz-adv-x="810" d="M2 -125l573 1581h191l-573 -1581h-191z" />
<glyph unicode="0" horiz-adv-x="881" d="M134 484q0 66 25.5 124.5t69 102.5t102 69.5t125.5 25.5q66 0 124.5 -25.5t102.5 -69.5t69.5 -103t25.5 -124q0 -67 -25.5 -126t-69.5 -102t-102.5 -68.5t-124.5 -25.5q-67 0 -125.5 25.5t-102 68.5t-69 102t-25.5 126zM311 484q0 -30 11.5 -56.5t31 -46t46 -31.5 t56.5 -12t56.5 12t46.5 31.5t31.5 45.5t11.5 57q0 30 -11.5 56t-31.5 46t-46.5 32t-56.5 12t-56.5 -12t-46 -32t-31 -46t-11.5 -56z" />
<glyph unicode="1" horiz-adv-x="589" d="M88 1206l188 115q41 -63 68 -136.5t46.5 -155t33 -170t26.5 -180.5q9 -69 14 -150.5t8 -165.5t4 -166t1 -153v-94h-225q0 114 -1.5 232t-6.5 233.5t-15.5 226.5t-28.5 212t-45.5 190.5t-66.5 161.5z" />
<glyph unicode="2" horiz-adv-x="1012" d="M43 1205l189 121q20 -32 32.5 -57t22.5 -47.5t19 -46.5t23 -53q19 -44 37.5 -78.5t42 -59t54.5 -37.5q29 -12 70 -12h6q55 1 84.5 23.5t42.5 57t14.5 76.5t1.5 82q0 36 -2.5 62.5t-8.5 60.5l220 40q7 -51 12 -98.5t5 -89.5q0 -84 -22.5 -164t-82.5 -156 q-48 -59 -115.5 -88.5t-148.5 -29.5q-63 0 -118 14q12 -93 19 -194t10.5 -201t4 -196t0.5 -179h-225q0 145 -3.5 293t-15 288t-32.5 266t-57 227v-1q-11 26 -18.5 46.5t-15.5 40t-18 41t-27 49.5z" />
<glyph unicode="3" horiz-adv-x="1281" d="M55 1182l203 119q19 -31 37 -66.5t31 -66.5q8 -18 15.5 -36t14.5 -36q20 -45 37 -76t34.5 -51t37 -29t43.5 -9q30 0 47.5 17t25.5 45t11 64t5 72q0 8 -0.5 25t-1.5 35.5t-2.5 35t-2.5 24.5l214 28q1 -42 4.5 -74t9.5 -61t13.5 -57t17.5 -63h-1q9 -28 21.5 -43t25 -21.5 t23 -8t13.5 -1.5q33 0 45.5 29t12.5 72q0 27 -4 58.5t-10 63t-13.5 61.5t-14.5 53l222 41l9 -49q5 -31 9.5 -56.5t8 -48t5 -45.5t1.5 -49q0 -91 -21.5 -153t-59.5 -110q-37 -43 -82 -67.5t-108 -24.5q-22 0 -48.5 4t-54.5 14.5t-56 28t-51 45.5l-1 -1q-22 -25 -44 -45 t-47.5 -34t-55 -21t-65.5 -7q-47 0 -81 9v-5q11 -84 17.5 -181.5t10.5 -197.5t5 -197t1 -179h-226q1 18 2 41t1.5 47.5t0.5 48v41.5q0 78 -2 166t-8.5 181t-18.5 187.5t-32.5 185t-50.5 174t-72 154.5z" />
<glyph unicode="4" horiz-adv-x="1120" d="M35 1197l189 119q29 -49 55 -96t46 -96q25 48 60.5 85.5t79 64.5t92 42t101.5 18h19q34 0 76 -5.5t89 -22t88.5 -44t72.5 -68.5l-128 -158l-18 11q-18 12 -46.5 25t-65.5 25t-75 12q-33 -4 -69.5 -19t-67 -38t-49.5 -51q-16 -24 -16 -50q0 -4 1 -10v1q6 -33 30.5 -55.5 t57.5 -37t71.5 -20.5t73.5 -6q33 0 69 6.5t71 17t68.5 25.5t60.5 31l98 -184q-92 -68 -183.5 -93t-180.5 -25q-73 0 -143 17t-128 54q25 -207 30.5 -383t5.5 -329h-225q0 177 -6.5 351t-29 334.5t-64 301t-110.5 250.5z" />
<glyph unicode="5" horiz-adv-x="1227" d="M72 354q0 115 30 222.5t77 209t106.5 197.5t117.5 187l-34 37l156 154q69 -65 122.5 -115t95.5 -91.5t76 -78t65 -74.5q53 -69 102.5 -143.5t87.5 -154t61 -162.5t23 -167q0 -77 -19.5 -151t-60.5 -132t-104.5 -95t-151.5 -40h-2q-67 0 -121.5 29.5t-92.5 77.5 q-43 -48 -99 -77t-122 -29q-81 5 -140.5 42t-97.5 93t-56.5 124.5t-18.5 136.5zM256 340q0 -33 10 -62.5t28 -51t41 -34.5t50 -13q14 0 31.5 7.5t34 23t31 38.5t23.5 54q13 46 22 86.5t12 80.5l167 -2q0 -24 2 -54.5t6.5 -63t12.5 -63.5t20.5 -55.5t30 -39.5t41.5 -15 q38 0 66 18.5t45.5 46.5t26 62.5t8.5 66.5q0 63 -19.5 125t-52 121.5t-75 115t-88.5 107t-93.5 98t-87.5 87.5q-59 -75 -112 -157t-93 -168t-64 -176.5t-24 -182.5z" />
<glyph unicode="6" horiz-adv-x="1047" d="M68 39q1 4 15.5 36.5t40 83.5t60.5 114.5t77 128.5q48 75 92 132t97 96q-61 1 -115 25.5t-94 66.5t-63.5 97.5t-23.5 119.5q0 83 34 155t90.5 125t130.5 84t153 32h14q44 0 83 -5.5t75.5 -16t69.5 -26t67 -33.5l-114 -195q-47 32 -92 46q-42 12 -82 12q-3 0 -25.5 -0.5 t-63 -15t-78.5 -39.5q-20 -13 -34.5 -31.5t-22.5 -40.5t-9 -45v-9q0 -19 5 -37q4 -12 20.5 -22.5t40.5 -19.5t54 -14.5t60 -5.5h11q34 0 74.5 5t85.5 14.5t90.5 21.5t88.5 24l82 -195l-67 -31q-70 -33 -134.5 -80.5t-121 -103t-105 -115t-88.5 -117t-71 -109.5t-52 -91.5 t-32 -63.5l-11 -24z" />
<glyph unicode="7" horiz-adv-x="1149" d="M70 1215l188 120q67 -110 120.5 -216t95.5 -210t74.5 -209t58.5 -215q32 124 72 252t82 243t84 209.5t78 151.5l187 -120q-30 -49 -61.5 -113t-63.5 -137.5t-64.5 -156.5t-63.5 -170q-72 -202 -109.5 -375t-39.5 -314h-224q0 206 -35.5 382t-93.5 329t-132.5 288.5 t-152.5 260.5z" />
<glyph unicode="8" horiz-adv-x="1202" d="M77 50q77 125 151.5 261t132.5 291t93.5 332t35.5 384l242 -5q3 -95 22.5 -207t51 -230.5t72 -237.5t85 -227t90.5 -200.5t88 -156.5l-187 -119q-36 57 -79 140.5t-87 185.5t-85 218t-73 236q-28 -102 -64 -197.5t-81 -190.5t-100 -192.5t-120 -203.5z" />
<glyph unicode="9" horiz-adv-x="977" d="M93 958q0 22 1 46q11 67 38 135t70 122.5t101.5 89.5t133.5 35q87 0 146 -36.5t96 -96t55 -135.5t26 -155t8 -154.5v-134.5q0 -35 5 -86.5t15.5 -110.5t24 -121.5t30 -118.5t34.5 -101.5t37 -70.5l-144 -127q-34 36 -61.5 89t-49.5 116t-39 132t-28.5 134.5t-18 124 t-7.5 102.5q-30 -2 -58 -2q-72 0 -150 14.5t-142.5 59t-97.5 117.5q-26 57 -25 133zM275 949q0 -9 1.5 -22.5t12.5 -25.5q39 -39 142 -49q20 -2 41 -2q13 0 36.5 1.5t56.5 6.5q-3 43 -5.5 72t-5.5 49t-5.5 33.5t-5.5 23.5q-33 129 -119 130q-84 0 -127 -117 q-5 -13 -11 -33.5t-9 -42.5q-2 -12 -2 -24z" />
<glyph unicode=":" horiz-adv-x="585" d="M140 139q0 62 40 103.5t112 41.5q73 0 113 -41.5t40 -104.5q0 -61 -40 -101.5t-113 -40.5q-70 0 -111 40t-41 103zM140 786q0 62 40 104t112 42q73 0 113 -41.5t40 -104.5q0 -61 -40 -101.5t-113 -40.5q-70 0 -111 40t-41 102z" />
<glyph unicode=";" horiz-adv-x="487" d="M46 -250q58 91 79.5 158.5t22.5 137.5v189h219l-1 -175q-1 -106 -53.5 -212.5t-135.5 -175.5zM109 970q0 58 37 96.5t104 38.5q68 0 105 -38.5t37 -96.5q0 -57 -37 -94.5t-105 -37.5q-65 0 -103 37t-38 95z" />
<glyph unicode="&#x3c;" horiz-adv-x="1040" d="M63 537v193l837 372v-243l-590 -228l590 -224v-243z" />
<glyph unicode="=" horiz-adv-x="1145" d="M145 356v201h862v-201h-862zM145 780v202h862v-202h-862z" />
<glyph unicode="&#x3e;" horiz-adv-x="1065" d="M128 165v239l618 232l-618 227v239l864 -372v-193z" />
<glyph unicode="?" horiz-adv-x="996" d="M60 1093q3 177 121 280t313 103q201 0 313.5 -102t112.5 -285q0 -163 -152 -321l-123 -121q-66 -76 -68 -219h-227q0 133 33 212t130.5 173.5t123.5 134.5q40 61 40 132q0 93 -46.5 143t-136.5 50q-86 0 -138.5 -48.5t-52.5 -131.5h-243zM333 117q0 60 37 96t100 36 q64 0 101 -37.5t37 -94.5q0 -54 -36 -91.5t-102 -37.5t-101.5 37.5t-35.5 91.5z" />
<glyph unicode="@" horiz-adv-x="1831" d="M102 408v63q12 274 123 492.5t303.5 339.5t438.5 121q249 0 428.5 -109.5t268.5 -314.5q78 -181 79 -415q0 -33 -2 -67q-12 -250 -123 -394.5t-301 -144.5q-181 0 -242 154q-51 -76 -118.5 -114t-141.5 -38q-146 0 -221 121q-61 96 -62 246q0 36 4 74q16 163 79.5 294 t161 202.5t207.5 71.5q84 0 148.5 -21t151.5 -87l-52 -563q-3 -25 -2 -47q0 -150 116 -151q102 0 167.5 109.5t71.5 283.5q2 36 2 69q0 319 -152 505.5t-472 186.5q-196 0 -347.5 -98t-240.5 -283.5t-98 -422.5q-2 -35 -2 -68q0 -199 64.5 -360.5t208 -252.5t350.5 -91 q85 0 176 20t155 54l38 -137q-61 -40 -164.5 -64.5t-208.5 -24.5q-254 0 -436 107.5t-273 311.5q-84 188 -83 442zM728 355q0 -88 32.5 -149t113.5 -61q53 0 101.5 47.5t78.5 130.5l45 493q-50 20 -97 19q-110 0 -180.5 -104.5t-89.5 -308.5q-4 -36 -4 -67z" />
<glyph unicode="A" horiz-adv-x="1363" d="M18 0l550 1456h227l551 -1456h-264l-119 339h-564l-118 -339h-263zM470 543h422l-211 604z" />
<glyph unicode="B" horiz-adv-x="1292" d="M148 0v1456h499q247 0 376 -99t129 -295q0 -101 -54 -180.5t-158 -123.5q118 -32 182.5 -120.5t64.5 -212.5q0 -205 -131.5 -315t-376.5 -110h-531zM401 202h281q119 0 186 59t67 164q0 227 -232 232h-302v-455zM401 843h248q118 0 184.5 53.5t66.5 151.5 q0 108 -61.5 156t-191.5 48h-246v-409z" />
<glyph unicode="C" horiz-adv-x="1337" d="M102 650v136q0 206 73 363t209.5 242t315.5 85q241 0 388 -131t171 -370h-252q-18 157 -91.5 226.5t-215.5 69.5q-165 0 -253.5 -120.5t-90.5 -353.5v-129q0 -236 84.5 -360t247.5 -124q149 0 224 67t95 223h252q-22 -232 -172 -363t-399 -131q-175 0 -307 82.5 t-204 234.5t-75 353z" />
<glyph unicode="D" horiz-adv-x="1338" d="M148 0v1456h430q193 0 342.5 -86t231.5 -244t82 -362v-73q0 -207 -82.5 -364t-235 -242t-349.5 -85h-419zM401 202h165q199 0 305.5 124.5t108.5 357.5v81q0 237 -103 362t-299 125h-177v-1050z" />
<glyph unicode="E" horiz-adv-x="1157" d="M148 0v1456h945v-204h-692v-402h598v-200h-598v-448h699v-202h-952z" />
<glyph unicode="F" horiz-adv-x="1124" d="M148 0v1456h925v-204h-672v-433h586v-202h-586v-617h-253z" />
<glyph unicode="G" horiz-adv-x="1394" d="M106 661v114q0 330 158 515.5t441 185.5q243 0 386 -120t172 -346h-248q-42 263 -303 263h-2q-170 0 -258.5 -122.5t-91.5 -359.5v-112q0 -236 99.5 -366.5t276.5 -130.5q193 0 276 88v285h-300v192h552v-558q-79 -102 -219 -155.5t-318 -53.5q-183 0 -324 83 t-217.5 237.5t-79.5 360.5z" />
<glyph unicode="H" horiz-adv-x="1454" d="M148 0v1456h253v-606h651v606h252v-1456h-252v647h-651v-647h-253z" />
<glyph unicode="I" horiz-adv-x="577" d="M163 0v1456h252v-1456h-252z" />
<glyph unicode="J" horiz-adv-x="1137" d="M45 415h252q0 -116 57.5 -174.5t166.5 -58.5q102 0 162.5 67.5t60.5 186.5v1020h252v-1021q0 -209 -130.5 -332t-344.5 -123q-228 0 -352 115t-124 320z" />
<glyph unicode="K" horiz-adv-x="1291" d="M148 0v1456h253v-683l140 173l426 510h306l-541 -645l572 -811h-300l-438 629l-165 -175v-454h-253z" />
<glyph unicode="L" horiz-adv-x="1107" d="M148 0v1456h253v-1254h661v-202h-914z" />
<glyph unicode="M" horiz-adv-x="1793" d="M148 0v1456h328l420 -1116l419 1116h327v-1456h-252v480l25 642l-430 -1122h-181l-429 1121l25 -641v-480h-252z" />
<glyph unicode="N" horiz-adv-x="1454" d="M148 0v1456h253l651 -1037v1037h251v-1456h-253l-649 1033v-1033h-253z" />
<glyph unicode="O" horiz-adv-x="1414" d="M102 682v82q0 213 75.5 376t213 249.5t315.5 86.5t315.5 -85.5t212.5 -246t76 -373.5v-81q0 -214 -74 -375.5t-211.5 -248t-316.5 -86.5q-177 0 -315.5 86.5t-214 246.5t-76.5 369zM355 690q0 -240 93.5 -371t259.5 -131q168 0 258.5 128t90.5 374v76q0 242 -91.5 371 t-259.5 129q-164 0 -256.5 -128.5t-94.5 -363.5v-84z" />
<glyph unicode="P" horiz-adv-x="1308" d="M148 0v1456h557q244 0 387.5 -127t143.5 -336q0 -214 -140.5 -333t-393.5 -119h-301v-541h-253zM401 744h304q134 0 205.5 63.5t71.5 183.5q0 118 -72 188.5t-198 72.5h-311v-508z" />
<glyph unicode="Q" horiz-adv-x="1414" d="M96 682v82q0 213 75.5 376t213 249.5t314.5 86.5q180 0 317.5 -85.5t212.5 -246t76 -373.5v-81q0 -207 -65.5 -358.5t-183.5 -240.5l250 -195l-164 -148l-310 245q-61 -12 -131 -13q-175 0 -314 86.5t-214.5 246.5t-76.5 369zM349 690q0 -236 92.5 -369t259.5 -133 q169 0 259.5 128t90.5 374v76q0 247 -92 373.5t-260 126.5q-163 0 -255.5 -128.5t-94.5 -362.5v-85z" />
<glyph unicode="R" horiz-adv-x="1277" d="M148 0v1456h512q252 0 389 -113t137 -327q0 -146 -70.5 -244.5t-196.5 -151.5l327 -607v-13h-271l-292 561h-282v-561h-253zM401 764h260q128 0 200 64.5t72 176.5q0 117 -66.5 181t-198.5 66h-267v-488z" />
<glyph unicode="S" horiz-adv-x="1235" d="M74 440h253q0 -124 82 -192t235 -68q132 0 198.5 53.5t66.5 141.5q0 96 -67.5 148t-243.5 105t-280 118q-199 125 -199 326q0 176 143.5 290t372.5 114q152 0 271 -56t187 -159.5t68 -229.5h-252q0 114 -71.5 178.5t-204.5 64.5q-124 0 -192.5 -53t-68.5 -148 q0 -80 74 -133.5t244 -104t273 -115t151 -148t48 -195.5q0 -182 -139.5 -289.5t-378.5 -107.5q-158 0 -290.5 58.5t-206 161.5t-73.5 240z" />
<glyph unicode="T" horiz-adv-x="1243" d="M45 1252v204h1155v-204h-454v-1252h-251v1252h-450z" />
<glyph unicode="U" horiz-adv-x="1334" d="M125 484v972h252v-974q0 -146 74 -223t218 -77q292 0 292 308v966h252v-973q0 -232 -148.5 -367.5t-395.5 -135.5q-249 0 -396.5 133.5t-147.5 370.5z" />
<glyph unicode="V" horiz-adv-x="1324" d="M18 1456h277l366 -1139l370 1139h278l-524 -1456h-245z" />
<glyph unicode="W" horiz-adv-x="1802" d="M48 1456h251l226 -1094l278 1094h212l275 -1096l224 1096h251l-336 -1456h-242l-277 1063l-283 -1063h-243z" />
<glyph unicode="X" horiz-adv-x="1295" d="M41 0l451 734l-441 722h292l306 -526l306 526h292l-440 -722l450 -734h-295l-313 534l-314 -534h-294z" />
<glyph unicode="Y" horiz-adv-x="1248" d="M7 1456h281l335 -690l335 690h280l-488 -920v-536h-254v536z" />
<glyph unicode="Z" horiz-adv-x="1233" d="M80 0v164l753 1088h-748v204h1055v-160l-754 -1094h778v-202h-1084z" />
<glyph unicode="[" horiz-adv-x="560" d="M132 -324v2002h408v-190h-165v-1623h165v-189h-408z" />
<glyph unicode="\" horiz-adv-x="855" d="M20 1456h240l608 -1581h-240z" />
<glyph unicode="]" horiz-adv-x="560" d="M12 -135h167v1623h-167v190h410v-2002h-410v189z" />
<glyph unicode="^" horiz-adv-x="875" d="M53 729l299 727h171l298 -727h-205l-179 461l-178 -461h-206z" />
<glyph unicode="_" horiz-adv-x="924" d="M3 0h917v-191h-917v191z" />
<glyph unicode="`" horiz-adv-x="659" d="M49 1536h277l195 -303h-202z" />
<glyph unicode="a" horiz-adv-x="1107" d="M90 303q0 174 128.5 266t367.5 92h149v71q0 84 -47 134.5t-143 50.5q-83 0 -136 -41.5t-53 -105.5h-243q0 89 59 166.5t160.5 121.5t226.5 44q190 0 303 -95.5t116 -268.5v-488q0 -146 41 -233v-17h-248q-16 31 -28 101q-116 -120 -284 -121q-163 0 -266 93t-103 230z M333 328q0 -69 46.5 -111t124.5 -42q72 0 135.5 35t95.5 94v204h-131q-134 0 -202.5 -47t-68.5 -133z" />
<glyph unicode="b" horiz-adv-x="1153" d="M124 0v1536h243v-558q104 124 280 124h3q198 0 311 -147t113 -411v-14q0 -252 -112.5 -401t-309.5 -149q-190 0 -296 137l-12 -117h-220zM367 319q65 -141 224 -141q114 0 176 85t64 257v31q0 175 -62 263.5t-180 88.5q-158 0 -222 -138v-446z" />
<glyph unicode="c" horiz-adv-x="1072" d="M79 533v25q0 247 132 395.5t360 148.5q193 0 314.5 -112.5t127.5 -295.5h-229q-4 93 -63.5 153t-151.5 60q-118 0 -182 -85.5t-65 -259.5v-39q0 -175 63.5 -262t183.5 -87q91 0 151 53t64 131h229q-4 -101 -63 -188.5t-160 -138.5t-218 -51q-227 0 -360 147t-133 406z " />
<glyph unicode="d" horiz-adv-x="1155" d="M79 549q0 249 116 401t311 152q172 0 278 -120v554h243v-1536h-220l-12 112q-110 -132 -291 -132q-190 0 -307.5 152.5t-117.5 416.5zM322 528q0 -165 63.5 -257.5t180.5 -92.5q149 0 218 133v462q-67 130 -216 130q-118 0 -182 -93.5t-64 -281.5z" />
<glyph unicode="e" horiz-adv-x="1098" d="M83 513v30q0 162 62.5 289.5t175.5 198.5t252 71q221 0 341.5 -141t120.5 -399v-98h-707q12 -134 90 -212t197 -78q167 0 272 135l131 -125q-65 -97 -173.5 -150.5t-243.5 -53.5q-231 0 -374.5 145.5t-143.5 387.5zM332 642h463v18q-8 122 -64.5 184.5t-158.5 62.5 q-100 0 -161.5 -70t-78.5 -195z" />
<glyph unicode="f" horiz-adv-x="725" d="M45 902v180h165v99q0 180 100 278t280 98q63 0 136 -18l-6 -190q-40 8 -93 8q-174 0 -174 -179v-96h220v-180h-220v-902h-243v902h-165z" />
<glyph unicode="g" horiz-adv-x="1161" d="M82 549q0 252 118.5 402.5t314.5 150.5q185 0 291 -129l11 109h219v-1049q0 -213 -132.5 -336t-357.5 -123q-118 0 -232 49.5t-173 129.5l115 146q110 -133 274 -133h2q121 0 191 65.5t70 192.5v73q-105 -117 -280 -117q-190 0 -310.5 151t-120.5 418zM324 528 q0 -163 66.5 -256.5t184.5 -93.5q147 0 218 126v476q-69 123 -216 123q-120 0 -186.5 -95t-66.5 -280z" />
<glyph unicode="h" horiz-adv-x="1137" d="M121 0v1536h243v-572q118 138 301 138q345 0 351 -395v-707h-243v698q0 112 -48.5 158.5t-142.5 46.5q-146 0 -218 -130v-773h-243z" />
<glyph unicode="i" horiz-adv-x="522" d="M125 1363q0 56 35.5 93t101.5 37t102 -37t36 -93q0 -55 -36 -91.5t-102 -36.5t-101.5 36.5t-35.5 91.5zM140 0v1082h243v-1082h-243z" />
<glyph unicode="j" horiz-adv-x="512" d="M-75 -228q37 -9 86 -9q121 0 124 132v1187h243v-1178q0 -166 -82.5 -253.5t-241.5 -87.5q-68 0 -129 17v192zM114 1363q0 56 35.5 93t101.5 37t102 -37t36 -93q0 -55 -36 -91.5t-102 -36.5t-101.5 36.5t-35.5 91.5z" />
<glyph unicode="k" horiz-adv-x="1069" d="M125 0v1536h243v-886l76 95l299 337h292l-402 -451l445 -631h-281l-321 464l-108 -111v-353h-243z" />
<glyph unicode="l" horiz-adv-x="522" d="M140 0v1536h243v-1536h-243z" />
<glyph unicode="m" horiz-adv-x="1781" d="M124 0v1082h229l7 -113q113 133 309 133h3q216 0 297 -166q117 166 329 166h3q179 0 266.5 -99t89.5 -292v-711h-243v704q0 102 -45 150.5t-149 48.5q-83 0 -135.5 -44.5t-73.5 -116.5l1 -742h-243v712q-5 191 -195 191q-146 0 -207 -119v-784h-243z" />
<glyph unicode="n" horiz-adv-x="1138" d="M121 0v1082h229l7 -125q120 145 315 145q337 0 344 -387v-715h-243v701q0 103 -44.5 152.5t-145.5 49.5q-147 0 -219 -133v-770h-243z" />
<glyph unicode="o" horiz-adv-x="1165" d="M79 539v12q0 158 63 286t177 196.5t262 68.5q219 0 355.5 -141t147.5 -374l1 -57q0 -159 -61.5 -285.5t-176 -195.5t-264.5 -69q-229 0 -366.5 152.5t-137.5 406.5zM322 530q0 -167 69 -261.5t192 -94.5t191.5 96t68.5 281q0 164 -70.5 260t-191.5 96 q-118 0 -188.5 -94.5t-70.5 -282.5z" />
<glyph unicode="p" horiz-adv-x="1153" d="M124 -416v1498h224l10 -110q107 130 291 130q198 0 310.5 -147.5t112.5 -409.5v-15q0 -251 -114 -400.5t-306 -149.5q-178 0 -285 117v-513h-243zM367 300q66 -126 216 -126q116 0 181.5 93t65.5 284q0 162 -64.5 257t-184.5 95q-149 0 -214 -123v-480z" />
<glyph unicode="q" horiz-adv-x="1162" d="M79 550q0 254 116 403t314 149q181 0 287 -127l14 107h216v-1498h-243v508q-106 -111 -276 -112q-193 0 -310.5 151.5t-117.5 418.5zM322 529q0 -166 65.5 -260.5t181.5 -94.5q144 0 214 123v492q-69 118 -212 118q-116 0 -182.5 -93t-66.5 -285z" />
<glyph unicode="r" horiz-adv-x="720" d="M124 0v1082h232l6 -121q86 141 242 141h2q52 0 86 -14l-1 -228q-48 8 -99 8q-167 0 -225 -128v-740h-243z" />
<glyph unicode="s" horiz-adv-x="1056" d="M75 341h236q5 -86 65 -132.5t159 -46.5q96 0 146 36.5t50 95.5q0 65 -53.5 99t-177.5 60t-207 66q-182 88 -182 255q0 140 118 234t300 94q194 0 313.5 -96t119.5 -249h-243q0 70 -52 116.5t-138 46.5q-80 0 -130.5 -37t-50.5 -99q0 -55 47 -86.5t190 -63t224.5 -75 t121 -104.5t39.5 -148q0 -146 -121 -236.5t-317 -90.5q-133 0 -237 48t-162 132t-58 181z" />
<glyph unicode="t" horiz-adv-x="681" d="M8 902v180h178v263h243v-263h191v-180h-191v-604q0 -62 24.5 -89.5t87.5 -27.5q42 0 85 10v-188q-83 -22 -160 -23q-280 0 -280 309v613h-178z" />
<glyph unicode="u" horiz-adv-x="1137" d="M119 381v701h243v-698q0 -206 171 -206q176 0 239 127v777h243v-1082h-229l-6 106q-107 -126 -304 -126q-176 0 -266.5 103t-90.5 298z" />
<glyph unicode="v" horiz-adv-x="1013" d="M22 1082h252l232 -774l229 774h251l-375 -1082h-211z" />
<glyph unicode="w" horiz-adv-x="1521" d="M33 1082h237l175 -739l222 739h183l225 -747l172 747h237l-295 -1082h-200l-232 743l-228 -743h-200z" />
<glyph unicode="x" horiz-adv-x="1030" d="M31 0l342 549l-330 533h268l202 -356l206 356h270l-331 -533l342 -549h-268l-216 370l-215 -370h-270z" />
<glyph unicode="y" horiz-adv-x="997" d="M12 1082h262l229 -734l220 734h259l-430 -1246q-99 -273 -336 -273q-53 0 -117 18v188l46 -3q92 0 138.5 33.5t73.5 112.5l35 93z" />
<glyph unicode="z" horiz-adv-x="1030" d="M82 0v159l549 727h-539v196h847v-154l-555 -734h576v-194h-878z" />
<glyph unicode="{" horiz-adv-x="687" d="M56 529v178q193 0 193 226v212q3 180 93.5 291t266.5 161l48 -140q-173 -56 -179 -306v-216q0 -225 -173 -316q173 -92 173 -319v-213q6 -250 179 -306l-48 -141q-353 99 -360 451v213q0 225 -193 225z" />
<glyph unicode="|" horiz-adv-x="513" d="M174 -270v1726h167v-1726h-167z" />
<glyph unicode="}" horiz-adv-x="687" d="M27 -219q176 57 180 312v208q0 231 182 317q-183 86 -182 320v207q-4 255 -180 312l48 140q183 -52 271.5 -166t88.5 -299v-200q0 -225 194 -225v-178q-193 0 -194 -225v-197q0 -187 -89.5 -301.5t-270.5 -165.5z" />
<glyph unicode="~" horiz-adv-x="1360" d="M117 425q0 171 91 280.5t239 109.5q74 0 140.5 -29.5t139 -95.5t106 -83t72.5 -17q68 0 109.5 56t41.5 140h188q0 -176 -95 -287.5t-237 -111.5q-74 0 -136.5 28t-139.5 96.5t-110.5 85t-71.5 16.5q-67 0 -105.5 -52t-38.5 -136h-193z" />
<glyph unicode="&#xa9;" horiz-adv-x="1603" d="M87 729q0 202 93.5 375t259 272.5t357.5 99.5t357 -99.5t258.5 -272.5t93.5 -375t-93.5 -375t-257.5 -273.5t-358 -100.5q-193 0 -357.5 100t-258.5 273t-94 376zM209 729q0 -170 77.5 -314t214 -227.5t296.5 -83.5t297.5 85t213.5 229t76 311q0 166 -75 308.5t-212 228 t-300 85.5q-158 0 -295 -82t-215 -226t-78 -314zM434 675v113q0 174 95.5 280.5t253.5 106.5q163 0 249.5 -82.5t86.5 -231.5h-156q0 96 -46 137.5t-134 41.5q-92 0 -143.5 -68t-51.5 -186v-117q0 -118 52 -185t143 -67q89 0 134 40.5t45 138.5h156q0 -151 -87.5 -232.5 t-246.5 -81.5q-160 0 -255 106.5t-95 286.5z" />
<glyph unicode="&#xab;" horiz-adv-x="804" d="M126 538q0 70 12.5 135t31.5 120t41.5 99.5t42 77t33.5 50.5t16 20l129 -108q0 -1 -22 -31t-48 -83t-48 -125t-22 -155q0 -43 6.5 -83.5t17 -76.5t23 -67t24.5 -55q26 -52 47 -80.5t22 -29.5l-129 -108q-2 2 -16 20.5t-33.5 50.5t-42 76t-41.5 99t-31.5 119t-12.5 135z M429 538q0 87 22 161.5t48.5 129t50 86t24.5 34.5l129 -108q-2 -4 -16 -24q-17 -23 -37 -63.5t-36.5 -95.5t-16.5 -120q0 -63 16.5 -118.5t36.5 -96t37 -63.5l16 -23l-129 -107q-2 3 -25 34t-49.5 85.5t-48.5 128t-22 160.5z" />
<glyph unicode="&#xad;" d="M71 521v196h525v-196h-525z" />
<glyph unicode="&#xae;" horiz-adv-x="1603" d="M87 729q0 202 93.5 375t259 272.5t357.5 99.5t357 -99.5t258.5 -272.5t93.5 -375t-93.5 -375t-257.5 -273.5t-358 -100.5q-193 0 -357.5 100t-258.5 273t-94 376zM209 729q0 -170 77.5 -314t214 -227.5t296.5 -83.5t297.5 85t213.5 229t76 311q0 166 -75 308.5t-212 228 t-300 85.5q-158 0 -295 -82t-215 -226t-78 -314zM502 316v850h281q153 0 239 -67.5t86 -192.5q0 -117 -120 -180q65 -28 91 -84t26 -137.5t3.5 -115.5t13.5 -57v-16h-155q-13 34 -13 194q0 76 -33 109.5t-110 33.5h-158v-337h-151zM653 787h143q69 0 115.5 31t46.5 85 q0 70 -35.5 99.5t-128.5 30.5h-141v-246z" />
<glyph unicode="&#xbb;" horiz-adv-x="836" d="M135 237q2 4 17 23q17 23 37 63.5t36.5 96t16.5 118.5q0 65 -16.5 120t-36.5 95.5t-37 63.5q-15 20 -17 24l129 108q2 -4 25.5 -35t50 -85.5t48.5 -129t22 -161.5t-22 -160.5t-48.5 -128t-50 -85.5t-25.5 -34zM407 146q1 1 22.5 30t45.5 80q12 24 25 55t23 67t17 76.5 t7 83.5q0 83 -22 155t-48 125t-48 83t-22 31l129 108q3 -2 16.5 -20t33 -50.5t42 -77t41.5 -99.5t31.5 -120t12.5 -135t-12.5 -134.5t-31.5 -119.5t-41.5 -99t-42 -76t-33 -50.5t-16.5 -20.5z" />
<glyph unicode="&#xd7;" horiz-adv-x="1091" d="M77 364l316 322l-316 322l148 150l315 -322l316 322l148 -150l-316 -322l316 -322l-148 -150l-316 321l-315 -321z" />
<glyph unicode="&#xf7;" horiz-adv-x="1169" d="M67 582v212h1012v-212h-1012zM435 278q0 58 37 96t104 38q68 0 105 -38t37 -96q0 -57 -37 -94t-105 -37q-67 0 -104 37t-37 94zM435 1095q0 57 37 95t104 38q68 0 105 -38t37 -95t-37 -94.5t-105 -37.5q-67 0 -104 37.5t-37 94.5z" />
<glyph unicode="&#x2c6;" horiz-adv-x="998" d="M148 1248v13l271 276h143l273 -278v-11h-195l-150 156l-149 -156h-193z" />
<glyph unicode="&#x2dc;" horiz-adv-x="983" d="M122 1251q0 110 63.5 185t158.5 75q57 0 137.5 -45t132.5 -45q37 0 64.5 28.5t27.5 75.5l149 -12q0 -110 -63.5 -183t-159.5 -73q-39 0 -67.5 8.5t-81 38.5t-74 36t-47.5 6q-38 0 -64.5 -28.5t-26.5 -74.5z" />
<glyph unicode="&#x2000;" horiz-adv-x="845" />
<glyph unicode="&#x2001;" horiz-adv-x="1691" />
<glyph unicode="&#x2002;" horiz-adv-x="845" />
<glyph unicode="&#x2003;" horiz-adv-x="1691" />
<glyph unicode="&#x2004;" horiz-adv-x="563" />
<glyph unicode="&#x2005;" horiz-adv-x="422" />
<glyph unicode="&#x2006;" horiz-adv-x="281" />
<glyph unicode="&#x2007;" horiz-adv-x="281" />
<glyph unicode="&#x2008;" horiz-adv-x="211" />
<glyph unicode="&#x2009;" horiz-adv-x="338" />
<glyph unicode="&#x200a;" horiz-adv-x="93" />
<glyph unicode="&#x2010;" d="M71 521v196h525v-196h-525z" />
<glyph unicode="&#x2011;" d="M71 521v196h525v-196h-525z" />
<glyph unicode="&#x2012;" d="M71 521v196h525v-196h-525z" />
<glyph unicode="&#x2013;" horiz-adv-x="1321" d="M158 621v196h1018v-196h-1018z" />
<glyph unicode="&#x2014;" horiz-adv-x="1584" d="M130 621v196h1358v-196h-1358z" />
<glyph unicode="&#x2018;" horiz-adv-x="447" d="M99 1056v138q1 96 52.5 200.5t130.5 167.5l124 -77q-91 -134 -94 -277v-152h-213z" />
<glyph unicode="&#x2019;" horiz-adv-x="444" d="M51 1101q90 132 93 277v158h213v-138q0 -103 -52.5 -207.5t-129.5 -166.5z" />
<glyph unicode="&#x201a;" horiz-adv-x="462" d="M50 -220q85 127 88 275v147h218v-133q-1 -93 -52 -197t-131 -170z" />
<glyph unicode="&#x201c;" horiz-adv-x="788" d="M108 1056v138q1 96 52.5 200.5t130.5 167.5l124 -77q-91 -134 -94 -277v-152h-213zM444 1056v138q1 96 52.5 200.5t130.5 167.5l124 -77q-91 -134 -94 -277v-152h-213z" />
<glyph unicode="&#x201d;" horiz-adv-x="795" d="M64 1101q90 132 93 277v158h213v-138q0 -103 -52.5 -207.5t-129.5 -166.5zM398 1101q90 132 93 277v158h213v-138q0 -103 -52.5 -207.5t-129.5 -166.5z" />
<glyph unicode="&#x201e;" horiz-adv-x="775" d="M50 -240q85 137 88 294v201h218v-186q-1 -108 -56 -222q-49 -100 -123 -165zM372 -240q88 142 92 292v203h218v-182q0 -99 -51 -209.5t-132 -181.5z" />
<glyph unicode="&#x2022;" horiz-adv-x="715" d="M136 726v45q0 95 60.5 155.5t160.5 60.5q103 0 163 -60.5t60 -158.5v-37q0 -94 -59.5 -153.5t-162.5 -59.5q-99 0 -159.5 57.5t-62.5 150.5z" />
<glyph unicode="&#x2026;" horiz-adv-x="1446" d="M138 121q0 58 37 96.5t104 38.5q69 0 105.5 -38.5t36.5 -96.5q0 -57 -37 -94.5t-105 -37.5q-65 0 -103 37t-38 95zM596 121q0 58 36.5 96.5t104.5 38.5t105 -38.5t37 -96.5q0 -57 -37 -94.5t-105 -37.5q-65 0 -103 37t-38 95zM1037 121q0 58 37 96.5t104 38.5 q68 0 105 -38.5t37 -96.5q0 -57 -37 -94.5t-105 -37.5q-65 0 -103 37t-38 95z" />
<glyph unicode="&#x202f;" horiz-adv-x="338" />
<glyph unicode="&#x2039;" horiz-adv-x="625" d="M108 528v19l288 390h167l-247 -400l247 -399h-167z" />
<glyph unicode="&#x203a;" horiz-adv-x="617" d="M84 138l247 399l-247 400h167l288 -390v-19l-288 -390h-167z" />
<glyph unicode="&#x205f;" horiz-adv-x="422" />
<glyph unicode="&#x25fc;" horiz-adv-x="1081" d="M0 0v1082h1082v-1082h-1082z" />
</font>
</defs>
</svg>
